Hubli.ufo
<glyph name="exclam" format="1">
  <advance width="250"/>
  <unicode hex="0021"/>
  <outline>
    <contour>
      <point x="158" y="102" type="curve" smooth="yes"/>
      <point x="160" y="88"/>
      <point x="160" y="72"/>
      <point x="160" y="50" type="curve" smooth="yes"/>
      <point x="160" y="33"/>
      <point x="159" y="16"/>
      <point x="157" y="3" type="curve" smooth="yes"/>
      <point x="154" y="-15"/>
      <point x="136" y="-27"/>
      <point x="119" y="-25" type="curve" smooth="yes"/>
      <point x="101" y="-22"/>
      <point x="89" y="-4"/>
      <point x="91" y="13" type="curve" smooth="yes"/>
      <point x="93" y="24"/>
      <point x="94" y="37"/>
      <point x="94" y="50" type="curve" smooth="yes"/>
      <point x="94" y="68"/>
      <point x="94" y="80"/>
      <point x="92" y="92" type="curve" smooth="yes"/>
      <point x="90" y="110"/>
      <point x="102" y="127"/>
      <point x="120" y="130" type="curve" smooth="yes"/>
      <point x="138" y="132"/>
      <point x="155" y="120"/>
    </contour>
    <contour>
      <point x="95" y="286" type="curve" smooth="yes"/>
      <point x="103" y="582" type="line" smooth="yes"/>
      <point x="103" y="600"/>
      <point x="119" y="614"/>
      <point x="137" y="614" type="curve" smooth="yes"/>
      <point x="155" y="614"/>
      <point x="169" y="598"/>
      <point x="169" y="580" type="curve" smooth="yes"/>
      <point x="161" y="284" type="line" smooth="yes"/>
      <point x="161" y="266"/>
      <point x="145" y="252"/>
      <point x="127" y="252" type="curve" smooth="yes"/>
      <point x="109" y="252"/>
      <point x="95" y="268"/>
    </contour>
  </outline>
</glyph>
<glyph name="comma" format="1">
  <advance width="250"/>
  <unicode hex="002C"/>
  <outline>
    <contour>
      <point x="153" y="102" type="curve" smooth="yes"/>
      <point x="157" y="86"/>
      <point x="160" y="64"/>
      <point x="160" y="40" type="curve" smooth="yes"/>
      <point x="160" y="-16"/>
      <point x="141" y="-72"/>
      <point x="110" y="-114" type="curve" smooth="yes"/>
      <point x="99" y="-129"/>
      <point x="78" y="-132"/>
      <point x="64" y="-122" type="curve" smooth="yes"/>
      <point x="49" y="-111"/>
      <point x="46" y="-90"/>
      <point x="56" y="-76" type="curve" smooth="yes"/>
      <point x="79" y="-44"/>
      <point x="94" y="-2"/>
      <point x="94" y="40" type="curve" smooth="yes"/>
      <point x="94" y="56"/>
      <point x="93" y="72"/>
      <point x="89" y="82" type="curve" smooth="yes"/>
      <point x="84" y="99"/>
      <point x="94" y="118"/>
      <point x="111" y="124" type="curve" smooth="yes"/>
      <point x="128" y="129"/>
      <point x="147" y="119"/>
    </contour>
  </outline>
</glyph>
<glyph name="period" format="1">
  <advance width="250"/>
  <unicode hex="002E"/>
  <outline>
    <contour>
      <point x="158" y="102" type="curve" smooth="yes"/>
      <point x="160" y="88"/>
      <point x="160" y="72"/>
      <point x="160" y="50" type="curve" smooth="yes"/>
      <point x="160" y="33"/>
      <point x="159" y="16"/>
      <point x="157" y="3" type="curve" smooth="yes"/>
      <point x="154" y="-15"/>
      <point x="136" y="-27"/>
      <point x="119" y="-25" type="curve" smooth="yes"/>
      <point x="101" y="-22"/>
      <point x="89" y="-4"/>
      <point x="91" y="13" type="curve" smooth="yes"/>
      <point x="93" y="24"/>
      <point x="94" y="37"/>
      <point x="94" y="50" type="curve" smooth="yes"/>
      <point x="94" y="68"/>
      <point x="94" y="80"/>
      <point x="92" y="92" type="curve" smooth="yes"/>
      <point x="90" y="110"/>
      <point x="102" y="127"/>
      <point x="120" y="130" type="curve" smooth="yes"/>
      <point x="138" y="132"/>
      <point x="155" y="120"/>
    </contour>
  </outline>
</glyph>
<glyph name="four" format="1">
  <advance width="525"/>
  <unicode hex="0034"/>
  <outline>
    <contour>
      <point x="383" y="558" type="curve" smooth="yes"/>
      <point x="383" y="451"/>
      <point x="383" y="158"/>
      <point x="383" y="27" type="curve" smooth="yes"/>
      <point x="383" y="9"/>
      <point x="368" y="-6"/>
      <point x="350" y="-6" type="curve" smooth="yes"/>
      <point x="332" y="-6"/>
      <point x="317" y="9"/>
      <point x="317" y="27" type="curve" smooth="yes"/>
      <point x="317" y="158"/>
      <point x="317" y="451"/>
      <point x="317" y="558" type="curve" smooth="yes"/>
      <point x="317" y="576"/>
      <point x="332" y="591"/>
      <point x="350" y="591" type="curve" smooth="yes"/>
      <point x="368" y="591"/>
      <point x="383" y="576"/>
    </contour>
    <contour>
      <point x="369" y="528" type="curve" smooth="yes"/>
      <point x="71" y="157" type="line" smooth="yes"/>
      <point x="60" y="143"/>
      <point x="38" y="141"/>
      <point x="24" y="152" type="curve" smooth="yes"/>
      <point x="10" y="163"/>
      <point x="8" y="185"/>
      <point x="19" y="199" type="curve" smooth="yes"/>
      <point x="317" y="570" type="line" smooth="yes"/>
      <point x="328" y="584"/>
      <point x="350" y="586"/>
      <point x="364" y="575" type="curve" smooth="yes"/>
      <point x="378" y="564"/>
      <point x="380" y="542"/>
    </contour>
    <contour>
      <point x="55" y="211" type="curve" smooth="yes"/>
      <point x="470" y="211" type="line" smooth="yes"/>
      <point x="488" y="211"/>
      <point x="503" y="196"/>
      <point x="503" y="178" type="curve" smooth="yes"/>
      <point x="503" y="160"/>
      <point x="488" y="145"/>
      <point x="470" y="145" type="curve" smooth="yes"/>
      <point x="55" y="145" type="line" smooth="yes"/>
      <point x="37" y="145"/>
      <point x="22" y="160"/>
      <point x="22" y="178" type="curve" smooth="yes"/>
      <point x="22" y="196"/>
      <point x="37" y="211"/>
    </contour>
  </outline>
</glyph>
<glyph name="nine" format="1">
  <advance width="612"/>
  <unicode hex="0039"/>
  <outline>
    <contour>
      <point x="188" y="73" type="curve" smooth="yes"/>
      <point x="213" y="66"/>
      <point x="235" y="60"/>
      <point x="267" y="60" type="curve" smooth="yes"/>
      <point x="396" y="60"/>
      <point x="455" y="147"/>
      <point x="455" y="289" type="curve" smooth="yes"/>
      <point x="455" y="430"/>
      <point x="392" y="516"/>
      <point x="285" y="516" type="curve" smooth="yes"/>
      <point x="192" y="516"/>
      <point x="144" y="453"/>
      <point x="144" y="389" type="curve" smooth="yes"/>
      <point x="144" y="311"/>
      <point x="193" y="267"/>
      <point x="276" y="267" type="curve" smooth="yes"/>
      <point x="362" y="267"/>
      <point x="414" y="320"/>
      <point x="456" y="387" type="curve" smooth="yes"/>
      <point x="465" y="402"/>
      <point x="486" y="407"/>
      <point x="501" y="398" type="curve" smooth="yes"/>
      <point x="516" y="389"/>
      <point x="521" y="368"/>
      <point x="512" y="353" type="curve" smooth="yes"/>
      <point x="458" y="264"/>
      <point x="386" y="201"/>
      <point x="276" y="201" type="curve" smooth="yes"/>
      <point x="149" y="201"/>
      <point x="78" y="271"/>
      <point x="78" y="389" type="curve" smooth="yes"/>
      <point x="78" y="483"/>
      <point x="144" y="582"/>
      <point x="285" y="582" type="curve" smooth="yes"/>
      <point x="422" y="582"/>
      <point x="521" y="484"/>
      <point x="521" y="289" type="curve" smooth="yes"/>
      <point x="521" y="97"/>
      <point x="434" y="-6"/>
      <point x="267" y="-6" type="curve" smooth="yes"/>
      <point x="227" y="-6"/>
      <point x="201" y="0"/>
      <point x="170" y="9" type="curve" smooth="yes"/>
      <point x="153" y="14"/>
      <point x="142" y="33"/>
      <point x="147" y="50" type="curve" smooth="yes"/>
      <point x="152" y="67"/>
      <point x="171" y="78"/>
    </contour>
  </outline>
</glyph>
<glyph name="F" format="1">
  <advance width="506"/>
  <unicode hex="0046"/>
  <outline>
    <contour>
      <point x="162" y="543" type="curve" smooth="yes"/>
      <point x="162" y="424"/>
      <point x="163" y="143"/>
      <point x="162" y="27" type="curve" smooth="yes"/>
      <point x="162" y="9"/>
      <point x="147" y="-6"/>
      <point x="129" y="-6" type="curve" smooth="yes"/>
      <point x="111" y="-6"/>
      <point x="96" y="9"/>
      <point x="96" y="27" type="curve" smooth="yes"/>
      <point x="97" y="143"/>
      <point x="96" y="424"/>
      <point x="96" y="543" type="curve" smooth="yes"/>
      <point x="96" y="561"/>
      <point x="111" y="576"/>
      <point x="129" y="576" type="curve" smooth="yes"/>
      <point x="147" y="576"/>
      <point x="162" y="561"/>
    </contour>
    <contour>
      <point x="139" y="576" type="curve" smooth="yes"/>
      <point x="232" y="576"/>
      <point x="359" y="576"/>
      <point x="417" y="576" type="curve" smooth="yes"/>
      <point x="435" y="576"/>
      <point x="450" y="561"/>
      <point x="450" y="543" type="curve" smooth="yes"/>
      <point x="450" y="525"/>
      <point x="435" y="510"/>
      <point x="417" y="510" type="curve" smooth="yes"/>
      <point x="359" y="510"/>
      <point x="232" y="510"/>
      <point x="139" y="510" type="curve" smooth="yes"/>
      <point x="121" y="510"/>
      <point x="106" y="525"/>
      <point x="106" y="543" type="curve" smooth="yes"/>
      <point x="106" y="561"/>
      <point x="121" y="576"/>
    </contour>
    <contour>
      <point x="139" y="317" type="curve" smooth="yes"/>
      <point x="232" y="317"/>
      <point x="310" y="317"/>
      <point x="368" y="317" type="curve" smooth="yes"/>
      <point x="386" y="317"/>
      <point x="401" y="302"/>
      <point x="401" y="284" type="curve" smooth="yes"/>
      <point x="401" y="266"/>
      <point x="386" y="251"/>
      <point x="368" y="251" type="curve" smooth="yes"/>
      <point x="310" y="251"/>
      <point x="232" y="251"/>
      <point x="139" y="251" type="curve" smooth="yes"/>
      <point x="121" y="251"/>
      <point x="106" y="266"/>
      <point x="106" y="284" type="curve" smooth="yes"/>
      <point x="106" y="302"/>
      <point x="121" y="317"/>
    </contour>
  </outline>
</glyph>
<glyph name="G" format="1">
  <advance width="744"/>
  <unicode hex="0047"/>
  <outline>
    <contour>
      <point x="418" y="76" type="curve" smooth="yes"/>
      <point x="480.98" y="76.0" name="inserted"/>
      <point x="538.73" y="90.52"/>
      <point x="593" y="120" type="curve"/>
      <point x="593" y="301" type="line"/>
      <point x="428" y="301" type="line" smooth="yes"/>
      <point x="405.22" y="301.0"/>
      <point x="387.0" y="319.22"/>
      <point x="387" y="342" type="curve" smooth="yes"/>
      <point x="387.0" y="364.78"/>
      <point x="405.22" y="383.0"/>
      <point x="428" y="383" type="curve" smooth="yes"/>
      <point x="625" y="383" type="line" smooth="yes"/>
      <point x="651.8" y="383.0"/>
      <point x="673.0" y="361.8"/>
      <point x="673" y="335" type="curve" smooth="yes"/>
      <point x="673" y="108" type="line" smooth="yes"/>
      <point x="673.0" y="79.86"/>
      <point x="657.78" y="56.72"/>
      <point x="635" y="46" type="curve" smooth="yes"/>
      <point x="559.96" y="8.48" name="inserted"/>
      <point x="484.39" y="-10.0"/>
      <point x="406" y="-10" type="curve" smooth="yes"/>
      <point x="300.81" y="-10.0" name="inserted"/>
      <point x="216.99" y="23.0"/>
      <point x="152" y="90" type="curve" smooth="yes"/>
      <point x="87.01" y="157.67" name="inserted"/>
      <point x="55.0" y="242.81"/>
      <point x="55" y="348" type="curve" smooth="yes"/>
      <point x="55.0" y="454.53" name="inserted"/>
      <point x="88.33" y="540.99"/>
      <point x="156" y="610" type="curve" smooth="yes"/>
      <point x="220.99" y="675.66" name="inserted"/>
      <point x="302.5" y="708.0"/>
      <point x="403" y="708" type="curve" smooth="yes"/>
      <point x="516.9" y="708.0"/>
      <point x="589.02" y="676.2"/>
      <point x="652" y="636" type="curve"/>
      <point x="678.8" y="621.26"/>
      <point x="675.74" y="588.25"/>
      <point x="661.0" y="571.5" type="curve" smooth="yes" name="inserted"/>
      <point x="646.26" y="554.75"/>
      <point x="622.4" y="557.3"/>
      <point x="609" y="564" type="curve"/>
      <point x="544.01" y="601.52" name="inserted"/>
      <point x="479.33" y="620.0"/>
      <point x="413" y="620" type="curve" smooth="yes"/>
      <point x="335.28" y="620.0" name="inserted"/>
      <point x="272.58" y="596.9"/>
      <point x="223" y="550" type="curve" smooth="yes"/>
      <point x="171.41" y="500.42" name="inserted"/>
      <point x="146.0" y="433.76"/>
      <point x="146" y="348" type="curve" smooth="yes"/>
      <point x="146.0" y="268.94" name="inserted"/>
      <point x="169.76" y="204.92"/>
      <point x="218" y="154" type="curve" smooth="yes"/>
      <point x="267.58" y="101.74" name="inserted"/>
      <point x="333.58" y="76.0"/>
    </contour>
  </outline>
</glyph>
<glyph name="H" format="1">
  <advance width="617"/>
  <unicode hex="0048"/>
  <outline>
    <contour>
      <point x="159" y="543" type="curve" smooth="yes"/>
      <point x="159" y="424"/>
      <point x="153" y="142"/>
      <point x="148" y="26" type="curve" smooth="yes"/>
      <point x="147" y="8"/>
      <point x="131" y="-7"/>
      <point x="114" y="-6" type="curve" smooth="yes"/>
      <point x="96" y="-5"/>
      <point x="81" y="11"/>
      <point x="82" y="28" type="curve" smooth="yes"/>
      <point x="87" y="144"/>
      <point x="93" y="424"/>
      <point x="93" y="543" type="curve" smooth="yes"/>
      <point x="93" y="561"/>
      <point x="108" y="576"/>
      <point x="126" y="576" type="curve" smooth="yes"/>
      <point x="144" y="576"/>
      <point x="159" y="561"/>
    </contour>
    <contour>
      <point x="537" y="542" type="curve" smooth="yes"/>
      <point x="531" y="390"/>
      <point x="530" y="150"/>
      <point x="527" y="26" type="curve" smooth="yes"/>
      <point x="527" y="8"/>
      <point x="511" y="-6"/>
      <point x="493" y="-6" type="curve" smooth="yes"/>
      <point x="475" y="-6"/>
      <point x="461" y="10"/>
      <point x="461" y="28" type="curve" smooth="yes"/>
      <point x="464" y="152"/>
      <point x="465" y="392"/>
      <point x="471" y="544" type="curve" smooth="yes"/>
      <point x="472" y="562"/>
      <point x="487" y="577"/>
      <point x="505" y="576" type="curve" smooth="yes"/>
      <point x="523" y="575"/>
      <point x="538" y="560"/>
    </contour>
    <contour>
      <point x="123" y="319" type="curve" smooth="yes"/>
      <point x="214" y="321"/>
      <point x="432" y="322"/>
      <point x="493" y="324" type="curve" smooth="yes"/>
      <point x="511" y="325"/>
      <point x="526" y="310"/>
      <point x="527" y="292" type="curve" smooth="yes"/>
      <point x="528" y="274"/>
      <point x="513" y="259"/>
      <point x="495" y="258" type="curve" smooth="yes"/>
      <point x="434" y="256"/>
      <point x="216" y="255"/>
      <point x="125" y="253" type="curve" smooth="yes"/>
      <point x="107" y="253"/>
      <point x="91" y="267"/>
      <point x="91" y="285" type="curve" smooth="yes"/>
      <point x="91" y="303"/>
      <point x="105" y="319"/>
    </contour>
  </outline>
</glyph>
<glyph name="I" format="1">
  <advance width="285"/>
  <unicode hex="0049"/>
  <outline>
    <contour>
      <point x="142" y="703" type="curve" smooth="yes"/>
      <point x="167.46" y="703.0"/>
      <point x="188.0" y="682.46"/>
      <point x="188" y="657" type="curve" smooth="yes"/>
      <point x="188" y="40" type="line" smooth="yes"/>
      <point x="188.0" y="14.54"/>
      <point x="167.46" y="-5.0"/>
      <point x="142" y="-5" type="curve" smooth="yes"/>
      <point x="116.54" y="-5.0"/>
      <point x="97.0" y="14.54"/>
      <point x="97" y="40" type="curve" smooth="yes"/>
      <point x="97" y="657" type="line" smooth="yes"/>
      <point x="97.0" y="682.46"/>
      <point x="116.54" y="703.0"/>
    </contour>
  </outline>
</glyph>
<glyph name="J" format="1">
  <advance width="466"/>
  <unicode hex="004A"/>
  <outline>
    <contour>
      <point x="327" y="703" type="curve" smooth="yes"/>
      <point x="352.46" y="703.0"/>
      <point x="373.0" y="682.46"/>
      <point x="373" y="657" type="curve" smooth="yes"/>
      <point x="373" y="230" type="line" smooth="yes"/>
      <point x="373.0" y="142.23" name="inserted"/>
      <point x="351.55" y="78.87"/>
      <point x="308" y="38" type="curve" smooth="yes"/>
      <point x="273.16" y="5.84" name="inserted"/>
      <point x="226.63" y="-10.0"/>
      <point x="167" y="-10" type="curve" smooth="yes"/>
      <point x="118.09" y="-10.0" name="inserted"/>
      <point x="74.2" y="1.22"/>
      <point x="34" y="24" type="curve" smooth="yes"/>
      <point x="4.52" y="40.08"/>
      <point x="8.43" y="72.75"/>
      <point x="22.5" y="89.5" type="curve" smooth="yes" name="inserted"/>
      <point x="36.57" y="106.25"/>
      <point x="55.24" y="104.38"/>
      <point x="74" y="95" type="curve" smooth="yes"/>
      <point x="124.92" y="69.54"/>
      <point x="175.52" y="74.13"/>
      <point x="205.0" y="81.5" type="curve" smooth="yes" name="inserted"/>
      <point x="219.74" y="85.185" name="inserted"/>
      <point x="232.61" y="92.28"/>
      <point x="244" y="103" type="curve" smooth="yes"/>
      <point x="269.46" y="127.12" name="inserted"/>
      <point x="282.0" y="167.05"/>
      <point x="282" y="224" type="curve" smooth="yes"/>
      <point x="282" y="657" type="line" smooth="yes"/>
      <point x="282.0" y="682.46"/>
      <point x="301.54" y="703.0"/>
    </contour>
  </outline>
</glyph>
<glyph name="K" format="1">
  <advance width="670"/>
  <unicode hex="004B"/>
  <outline>
    <contour>
      <point x="629" y="68" type="line" smooth="yes"/>
      <point x="643.74" y="49.24"/>
      <point x="644.25" y="24.25"/>
      <point x="627.5" y="7.5" type="curve" smooth="yes" name="inserted"/>
      <point x="610.75" y="-9.25"/>
      <point x="577.42" y="-11.12"/>
      <point x="560" y="13" type="curve" smooth="yes"/>
      <point x="302" y="342" type="line"/>
      <point x="188" y="227" type="line"/>
      <point x="188" y="40" type="line" smooth="yes"/>
      <point x="188.0" y="14.54"/>
      <point x="167.46" y="-5.0"/>
      <point x="142" y="-5" type="curve" smooth="yes"/>
      <point x="116.54" y="-5.0"/>
      <point x="97.0" y="14.54"/>
      <point x="97" y="40" type="curve" smooth="yes"/>
      <point x="97" y="657" type="line" smooth="yes"/>
      <point x="97.0" y="682.46"/>
      <point x="116.54" y="703.0"/>
      <point x="142" y="703" type="curve" smooth="yes"/>
      <point x="167.46" y="703.0"/>
      <point x="188.0" y="682.46"/>
      <point x="188" y="657" type="curve" smooth="yes"/>
      <point x="188" y="339" type="line"/>
      <point x="530" y="687" type="line"/>
      <point x="547.42" y="708.44"/>
      <point x="577.92" y="706.91"/>
      <point x="594.0" y="691.5" type="curve" smooth="yes" name="inserted"/>
      <point x="610.08" y="676.09"/>
      <point x="609.74" y="646.74"/>
      <point x="595" y="632" type="curve" smooth="yes"/>
      <point x="364" y="402" type="line"/>
    </contour>
  </outline>
</glyph>
<glyph name="L" format="1">
  <advance width="576"/>
  <unicode hex="004C"/>
  <outline>
    <contour>
      <point x="561" y="45" type="curve" smooth="yes"/>
      <point x="561.0" y="19.54"/>
      <point x="540.46" y="0.0"/>
      <point x="515" y="0" type="curve" smooth="yes"/>
      <point x="160" y="0" type="line" smooth="yes"/>
      <point x="125.16" y="0.0"/>
      <point x="97.0" y="28.16"/>
      <point x="97" y="63" type="curve" smooth="yes"/>
      <point x="97" y="657" type="line" smooth="yes"/>
      <point x="97.0" y="682.46"/>
      <point x="116.54" y="703.0"/>
      <point x="142" y="703" type="curve" smooth="yes"/>
      <point x="167.46" y="703.0"/>
      <point x="188.0" y="682.46"/>
      <point x="188" y="657" type="curve" smooth="yes"/>
      <point x="188" y="91" type="line"/>
      <point x="515" y="91" type="line" smooth="yes"/>
      <point x="540.46" y="91.0"/>
      <point x="561.0" y="70.46"/>
    </contour>
  </outline>
</glyph>
<glyph name="M" format="1">
  <advance width="966"/>
  <unicode hex="004D"/>
  <outline>
    <contour>
      <point x="869" y="637" type="curve" smooth="yes"/>
      <point x="869" y="40" type="line" smooth="yes"/>
      <point x="869.0" y="14.54"/>
      <point x="849.46" y="-5.0"/>
      <point x="824" y="-5" type="curve" smooth="yes"/>
      <point x="798.54" y="-5.0"/>
      <point x="778.0" y="14.54"/>
      <point x="778" y="40" type="curve" smooth="yes"/>
      <point x="778" y="608" type="line"/>
      <point x="547" y="37" type="line" smooth="yes"/>
      <point x="536.28" y="11.54"/>
      <point x="512.48" y="-5.0"/>
      <point x="483" y="-5" type="curve" smooth="yes"/>
      <point x="453.52" y="-5.0"/>
      <point x="429.72" y="11.54"/>
      <point x="419" y="37" type="curve" smooth="yes"/>
      <point x="188" y="608" type="line"/>
      <point x="188" y="40" type="line" smooth="yes"/>
      <point x="188.0" y="14.54"/>
      <point x="167.46" y="-5.0"/>
      <point x="142" y="-5" type="curve" smooth="yes"/>
      <point x="116.54" y="-5.0"/>
      <point x="97.0" y="14.54"/>
      <point x="97" y="40" type="curve" smooth="yes"/>
      <point x="97" y="637" type="line" smooth="yes"/>
      <point x="97.0" y="673.18"/>
      <point x="125.82" y="703.0"/>
      <point x="162" y="703" type="curve" smooth="yes"/>
      <point x="195" y="703" type="line" smooth="yes"/>
      <point x="221.8" y="703.0"/>
      <point x="245.28" y="685.12"/>
      <point x="256" y="661" type="curve" smooth="yes"/>
      <point x="483" y="95" type="line"/>
      <point x="710" y="661" type="line" smooth="yes"/>
      <point x="720.72" y="685.12"/>
      <point x="744.2" y="703.0"/>
      <point x="771" y="703" type="curve" smooth="yes"/>
      <point x="804" y="703" type="line" smooth="yes"/>
      <point x="840.18" y="703.0"/>
      <point x="869.0" y="673.18"/>
    </contour>
  </outline>
</glyph>
<glyph name="N" format="1">
  <advance width="803"/>
  <unicode hex="004E"/>
  <outline>
    <contour>
      <point x="660" y="703" type="curve" smooth="yes"/>
      <point x="685.46" y="703.0"/>
      <point x="706.0" y="682.46"/>
      <point x="706" y="657" type="curve" smooth="yes"/>
      <point x="706" y="60" type="line" smooth="yes"/>
      <point x="706.0" y="23.82"/>
      <point x="676.18" y="-5.0"/>
      <point x="640" y="-5" type="curve" smooth="yes"/>
      <point x="628" y="-5" type="line" smooth="yes"/>
      <point x="605.89" y="-5.0" name="inserted"/>
      <point x="588.4" y="3.91"/>
      <point x="575" y="22" type="curve" smooth="yes"/>
      <point x="188" y="581" type="line"/>
      <point x="188" y="40" type="line" smooth="yes"/>
      <point x="188.0" y="14.54"/>
      <point x="167.46" y="-5.0"/>
      <point x="142" y="-5" type="curve" smooth="yes"/>
      <point x="116.54" y="-5.0"/>
      <point x="97.0" y="14.54"/>
      <point x="97" y="40" type="curve" smooth="yes"/>
      <point x="97" y="637" type="line" smooth="yes"/>
      <point x="97.0" y="673.18"/>
      <point x="125.82" y="703.0"/>
      <point x="162" y="703" type="curve" smooth="yes"/>
      <point x="175" y="703" type="line" smooth="yes"/>
      <point x="195.77" y="703.0" name="inserted"/>
      <point x="213.92" y="693.1"/>
      <point x="230" y="673" type="curve"/>
      <point x="615" y="117" type="line"/>
      <point x="615" y="657" type="line" smooth="yes"/>
      <point x="615.0" y="682.46"/>
      <point x="634.54" y="703.0"/>
    </contour>
  </outline>
</glyph>
<glyph name="O" format="1">
  <advance width="654"/>
  <unicode hex="004F"/>
  <outline>
    <contour>
      <point x="330" y="586" type="curve" smooth="yes"/>
      <point x="477" y="586"/>
      <point x="600" y="464"/>
      <point x="600" y="285" type="curve" smooth="yes"/>
      <point x="600" y="114"/>
      <point x="498" y="-19"/>
      <point x="330" y="-19" type="curve" smooth="yes"/>
      <point x="173" y="-19"/>
      <point x="58" y="115"/>
      <point x="58" y="282" type="curve"/>
      <point x="58" y="464"/>
      <point x="171" y="586"/>
    </contour>
    <contour>
      <point x="330" y="520" type="curve" smooth="yes"/>
      <point x="205" y="520"/>
      <point x="124" y="420"/>
      <point x="124" y="282" type="curve" smooth="yes"/>
      <point x="124" y="155"/>
      <point x="207" y="47"/>
      <point x="330" y="47" type="curve" smooth="yes"/>
      <point x="462" y="47"/>
      <point x="534" y="156"/>
      <point x="534" y="285" type="curve" smooth="yes"/>
      <point x="534" y="420"/>
      <point x="445" y="520"/>
    </contour>
  </outline>
</glyph>
<glyph name="P" format="1">
  <advance width="669"/>
  <unicode hex="0050"/>
  <outline>
    <contour>
      <point x="370" y="698" type="line" smooth="yes"/>
      <point x="463.13" y="698.0" name="inserted"/>
      <point x="532.1" y="674.24"/>
      <point x="579" y="626" type="curve" smooth="yes"/>
      <point x="617.86" y="587.14" name="inserted"/>
      <point x="637.0" y="537.64"/>
      <point x="637" y="476" type="curve" smooth="yes"/>
      <point x="637.0" y="414.36" name="inserted"/>
      <point x="617.86" y="364.86"/>
      <point x="579" y="326" type="curve" smooth="yes"/>
      <point x="532.1" y="277.76" name="inserted"/>
      <point x="463.13" y="254.0"/>
      <point x="370" y="254" type="curve" smooth="yes"/>
      <point x="188" y="254" type="line"/>
      <point x="188" y="40" type="line" smooth="yes"/>
      <point x="188.0" y="14.54"/>
      <point x="167.46" y="-5.0"/>
      <point x="142" y="-5" type="curve" smooth="yes"/>
      <point x="116.54" y="-5.0"/>
      <point x="97.0" y="14.54"/>
      <point x="97" y="40" type="curve" smooth="yes"/>
      <point x="97" y="652" type="line" smooth="yes"/>
      <point x="97.0" y="677.46"/>
      <point x="116.54" y="698.0"/>
      <point x="142" y="698" type="curve" smooth="yes"/>
    </contour>
    <contour>
      <point x="361" y="340" type="line" smooth="yes"/>
      <point x="430.01" y="340.0" name="inserted"/>
      <point x="479.18" y="354.52"/>
      <point x="510" y="384" type="curve" smooth="yes"/>
      <point x="534.12" y="406.78" name="inserted"/>
      <point x="546.0" y="437.14"/>
      <point x="546" y="476" type="curve" smooth="yes"/>
      <point x="546.0" y="538.31" name="inserted"/>
      <point x="515.31" y="579.23"/>
      <point x="453" y="600" type="curve" smooth="yes"/>
      <point x="428.88" y="608.04" name="inserted"/>
      <point x="398.52" y="612.0"/>
      <point x="361" y="612" type="curve" smooth="yes"/>
      <point x="188" y="612" type="line"/>
      <point x="188" y="340" type="line"/>
    </contour>
  </outline>
</glyph>
<glyph name="U" format="1">
  <advance width="634.0"/>
  <unicode hex="0055"/>
  <outline>
    <contour>
      <point x="156" y="543" type="curve" smooth="yes"/>
      <point x="156" y="472"/>
      <point x="156" y="309"/>
      <point x="156" y="229" type="curve" smooth="yes"/>
      <point x="156" y="117"/>
      <point x="219" y="47"/>
      <point x="316" y="47" type="curve" smooth="yes"/>
      <point x="422" y="47"/>
      <point x="478" y="117"/>
      <point x="478" y="232" type="curve" smooth="yes"/>
      <point x="478" y="309"/>
      <point x="478" y="440"/>
      <point x="478" y="543" type="curve" smooth="yes"/>
      <point x="478" y="561"/>
      <point x="493" y="576"/>
      <point x="511" y="576" type="curve" smooth="yes"/>
      <point x="529" y="576"/>
      <point x="544" y="561"/>
      <point x="544" y="543" type="curve" smooth="yes"/>
      <point x="544" y="440"/>
      <point x="544" y="309"/>
      <point x="544" y="232" type="curve" smooth="yes"/>
      <point x="544" y="71"/>
      <point x="460" y="-19"/>
      <point x="316" y="-19" type="curve" smooth="yes"/>
      <point x="185" y="-19"/>
      <point x="90" y="71"/>
      <point x="90" y="229" type="curve" smooth="yes"/>
      <point x="90" y="309"/>
      <point x="90" y="472"/>
      <point x="90" y="543" type="curve" smooth="yes"/>
      <point x="90" y="561"/>
      <point x="105" y="576"/>
      <point x="123" y="576" type="curve" smooth="yes"/>
      <point x="141" y="576"/>
      <point x="156" y="561"/>
    </contour>
  </outline>
</glyph>
<glyph name="V" format="1">
  <advance width="615.860331196"/>
  <unicode hex="0056"/>
  <outline>
    <contour>
      <point x="124" y="554" type="curve" smooth="yes"/>
      <point x="167" y="425"/>
      <point x="288" y="117"/>
      <point x="329" y="38" type="curve" smooth="yes"/>
      <point x="338" y="23"/>
      <point x="331" y="2"/>
      <point x="315" y="-6" type="curve" smooth="yes"/>
      <point x="300" y="-15"/>
      <point x="279" y="-8"/>
      <point x="271" y="8" type="curve" smooth="yes"/>
      <point x="228" y="87"/>
      <point x="105" y="401"/>
      <point x="62" y="534" type="curve" smooth="yes"/>
      <point x="56" y="551"/>
      <point x="66" y="570"/>
      <point x="83" y="575" type="curve" smooth="yes"/>
      <point x="100" y="581"/>
      <point x="119" y="571"/>
    </contour>
    <contour>
      <point x="275" y="32" type="curve" smooth="yes"/>
      <point x="321" y="121"/>
      <point x="440" y="403"/>
      <point x="492" y="554" type="curve" smooth="yes"/>
      <point x="498" y="571"/>
      <point x="517" y="580"/>
      <point x="534" y="574" type="curve" smooth="yes"/>
      <point x="551" y="568"/>
      <point x="560" y="549"/>
      <point x="554" y="532" type="curve" smooth="yes"/>
      <point x="502" y="379"/>
      <point x="381" y="93"/>
      <point x="333" y="2" type="curve" smooth="yes"/>
      <point x="325" y="-14"/>
      <point x="305" y="-21"/>
      <point x="289" y="-12" type="curve" smooth="yes"/>
      <point x="273" y="-4"/>
      <point x="266" y="16"/>
    </contour>
  </outline>
</glyph>
<glyph name="a" format="1">
  <advance width="474"/>
  <unicode hex="0061"/>
  <outline>
    <contour>
      <point x="109" y="404" type="curve" smooth="yes"/>
      <point x="136" y="421"/>
      <point x="183" y="434"/>
      <point x="225" y="434" type="curve" smooth="yes"/>
      <point x="340" y="434"/>
      <point x="395" y="357"/>
      <point x="395" y="250" type="curve" smooth="yes"/>
      <point x="395" y="198"/>
      <point x="395" y="140"/>
      <point x="395" y="115" type="curve" smooth="yes"/>
      <point x="395" y="76"/>
      <point x="405" y="51"/>
      <point x="418" y="32" type="curve" smooth="yes"/>
      <point x="427" y="17"/>
      <point x="423" y="-4"/>
      <point x="408" y="-14" type="curve" smooth="yes"/>
      <point x="393" y="-23"/>
      <point x="372" y="-19"/>
      <point x="362" y="-4" type="curve" smooth="yes"/>
      <point x="345" y="23"/>
      <point x="329" y="58"/>
      <point x="329" y="115" type="curve" smooth="yes"/>
      <point x="329" y="140"/>
      <point x="329" y="198"/>
      <point x="329" y="250" type="curve" smooth="yes"/>
      <point x="329" y="315"/>
      <point x="298" y="368"/>
      <point x="225" y="368" type="curve" smooth="yes"/>
      <point x="195" y="368"/>
      <point x="162" y="359"/>
      <point x="143" y="348" type="curve" smooth="yes"/>
      <point x="128" y="339"/>
      <point x="107" y="344"/>
      <point x="98" y="359" type="curve" smooth="yes"/>
      <point x="89" y="374"/>
      <point x="94" y="395"/>
    </contour>
    <contour>
      <point x="360" y="198" type="curve" smooth="yes"/>
      <point x="321" y="198"/>
      <point x="277" y="195"/>
      <point x="225" y="190" type="curve" smooth="yes"/>
      <point x="167" y="184"/>
      <point x="120" y="159"/>
      <point x="120" y="109" type="curve" smooth="yes"/>
      <point x="120" y="73"/>
      <point x="153" y="49"/>
      <point x="193" y="49" type="curve" smooth="yes"/>
      <point x="259" y="49"/>
      <point x="304" y="83"/>
      <point x="337" y="127" type="curve" smooth="yes"/>
      <point x="347" y="141"/>
      <point x="369" y="144"/>
      <point x="383" y="133" type="curve" smooth="yes"/>
      <point x="397" y="123"/>
      <point x="400" y="101"/>
      <point x="389" y="87" type="curve" smooth="yes"/>
      <point x="344" y="27"/>
      <point x="283" y="-17"/>
      <point x="193" y="-17" type="curve" smooth="yes"/>
      <point x="109" y="-17"/>
      <point x="54" y="40"/>
      <point x="54" y="109" type="curve"/>
      <point x="54" y="187"/>
      <point x="113" y="246"/>
      <point x="219" y="256" type="curve" smooth="yes"/>
      <point x="273" y="261"/>
      <point x="319" y="264"/>
      <point x="360" y="264" type="curve" smooth="yes"/>
      <point x="378" y="264"/>
      <point x="393" y="249"/>
      <point x="393" y="231" type="curve" smooth="yes"/>
      <point x="393" y="213"/>
      <point x="378" y="198"/>
    </contour>
  </outline>
</glyph>
<glyph name="c" format="1">
  <advance width="499.482212813"/>
  <unicode hex="0063"/>
  <outline>
    <contour>
      <point x="362" y="343" type="curve" smooth="yes"/>
      <point x="333" y="358"/>
      <point x="304" y="366"/>
      <point x="270" y="366" type="curve" smooth="yes"/>
      <point x="175" y="366"/>
      <point x="129" y="282"/>
      <point x="129" y="197" type="curve" smooth="yes"/>
      <point x="129" y="118"/>
      <point x="171" y="47"/>
      <point x="278" y="47" type="curve" smooth="yes"/>
      <point x="316" y="47"/>
      <point x="351" y="57"/>
      <point x="378" y="73" type="curve" smooth="yes"/>
      <point x="393" y="82"/>
      <point x="414" y="77"/>
      <point x="423" y="62" type="curve" smooth="yes"/>
      <point x="432" y="47"/>
      <point x="427" y="26"/>
      <point x="412" y="17" type="curve" smooth="yes"/>
      <point x="375" y="-5"/>
      <point x="328" y="-19"/>
      <point x="278" y="-19" type="curve" smooth="yes"/>
      <point x="125" y="-19"/>
      <point x="63" y="82"/>
      <point x="63" y="197" type="curve" smooth="yes"/>
      <point x="63" y="322"/>
      <point x="137" y="432"/>
      <point x="270" y="432" type="curve" smooth="yes"/>
      <point x="314" y="432"/>
      <point x="353" y="422"/>
      <point x="392" y="403" type="curve" smooth="yes"/>
      <point x="408" y="395"/>
      <point x="414" y="374"/>
      <point x="407" y="358" type="curve" smooth="yes"/>
      <point x="399" y="342"/>
      <point x="378" y="336"/>
    </contour>
  </outline>
</glyph>
<glyph name="e" format="1">
  <advance width="503.0"/>
  <unicode hex="0065"/>
  <outline>
    <contour>
      <point x="103" y="246" type="curve" smooth="yes"/>
      <point x="147" y="247"/>
      <point x="231" y="246"/>
      <point x="287" y="246" type="curve" smooth="yes"/>
      <point x="331" y="246"/>
      <point x="352" y="251"/>
      <point x="364" y="262" type="curve" smooth="yes"/>
      <point x="368" y="267"/>
      <point x="374" y="276"/>
      <point x="374" y="285" type="curve" smooth="yes"/>
      <point x="374" y="323"/>
      <point x="330" y="363"/>
      <point x="266" y="363" type="curve" smooth="yes"/>
      <point x="184" y="363"/>
      <point x="129" y="289"/>
      <point x="129" y="199" type="curve" smooth="yes"/>
      <point x="129" y="95"/>
      <point x="191" y="47"/>
      <point x="280" y="47" type="curve" smooth="yes"/>
      <point x="325" y="47"/>
      <point x="347" y="54"/>
      <point x="377" y="66" type="curve" smooth="yes"/>
      <point x="394" y="72"/>
      <point x="413" y="63"/>
      <point x="420" y="47" type="curve" smooth="yes"/>
      <point x="426" y="30"/>
      <point x="417" y="11"/>
      <point x="401" y="4" type="curve" smooth="yes"/>
      <point x="363" y="-10"/>
      <point x="335" y="-19"/>
      <point x="280" y="-19" type="curve" smooth="yes"/>
      <point x="153" y="-19"/>
      <point x="63" y="49"/>
      <point x="63" y="199" type="curve"/>
      <point x="63" y="333"/>
      <point x="150" y="429"/>
      <point x="266" y="429" type="curve" smooth="yes"/>
      <point x="384" y="429"/>
      <point x="440" y="347"/>
      <point x="440" y="285" type="curve" smooth="yes"/>
      <point x="440" y="258"/>
      <point x="424" y="229"/>
      <point x="410" y="216" type="curve" smooth="yes"/>
      <point x="392" y="197"/>
      <point x="363" y="180"/>
      <point x="287" y="180" type="curve" smooth="yes"/>
      <point x="231" y="180"/>
      <point x="149" y="181"/>
      <point x="105" y="180" type="curve" smooth="yes"/>
      <point x="87" y="180"/>
      <point x="71" y="194"/>
      <point x="71" y="212" type="curve" smooth="yes"/>
      <point x="71" y="230"/>
      <point x="85" y="246"/>
    </contour>
  </outline>
</glyph>
<glyph name="o" format="1">
  <advance width="543.0"/>
  <unicode hex="006F"/>
  <outline>
    <contour>
      <point x="273" y="434" type="curve" smooth="yes"/>
      <point x="401" y="434"/>
      <point x="487" y="320"/>
      <point x="487" y="201" type="curve" smooth="yes"/>
      <point x="487" y="89"/>
      <point x="401" y="-19"/>
      <point x="273" y="-19" type="curve" smooth="yes"/>
      <point x="145" y="-19"/>
      <point x="56" y="90"/>
      <point x="56" y="204" type="curve" smooth="yes"/>
      <point x="56" y="318"/>
      <point x="143" y="434"/>
    </contour>
    <contour>
      <point x="273" y="368" type="curve" smooth="yes"/>
      <point x="181" y="368"/>
      <point x="122" y="284"/>
      <point x="122" y="204" type="curve" smooth="yes"/>
      <point x="122" y="124"/>
      <point x="183" y="47"/>
      <point x="273" y="47" type="curve" smooth="yes"/>
      <point x="363" y="47"/>
      <point x="421" y="123"/>
      <point x="421" y="201" type="curve" smooth="yes"/>
      <point x="421" y="284"/>
      <point x="365" y="368"/>
    </contour>
  </outline>
</glyph>
<glyph name="s" format="1">
  <advance width="456"/>
  <unicode hex="0073"/>
  <outline>
    <contour>
      <point x="345" y="345" type="curve" smooth="yes"/>
      <point x="310" y="360"/>
      <point x="275" y="371"/>
      <point x="218" y="371" type="curve" smooth="yes"/>
      <point x="176" y="371"/>
      <point x="136" y="352"/>
      <point x="136" y="321" type="curve" smooth="yes"/>
      <point x="136" y="290"/>
      <point x="164" y="265"/>
      <point x="243" y="250" type="curve" smooth="yes"/>
      <point x="378" y="225"/>
      <point x="406" y="170"/>
      <point x="406" y="108" type="curve" smooth="yes"/>
      <point x="406" y="47"/>
      <point x="367" y="-19"/>
      <point x="235" y="-19" type="curve" smooth="yes"/>
      <point x="182" y="-19"/>
      <point x="120" y="-4"/>
      <point x="70" y="24" type="curve" smooth="yes"/>
      <point x="54" y="33"/>
      <point x="48" y="53"/>
      <point x="57" y="69" type="curve" smooth="yes"/>
      <point x="66" y="85"/>
      <point x="86" y="91"/>
      <point x="102" y="82" type="curve" smooth="yes"/>
      <point x="142" y="60"/>
      <point x="192" y="47"/>
      <point x="235" y="47" type="curve" smooth="yes"/>
      <point x="299" y="47"/>
      <point x="340" y="71"/>
      <point x="340" y="108" type="curve" smooth="yes"/>
      <point x="340" y="148"/>
      <point x="304" y="171"/>
      <point x="231" y="186" type="curve" smooth="yes"/>
      <point x="80" y="213"/>
      <point x="70" y="274"/>
      <point x="70" y="321" type="curve" smooth="yes"/>
      <point x="70" y="376"/>
      <point x="122" y="437"/>
      <point x="218" y="437" type="curve" smooth="yes"/>
      <point x="287" y="437"/>
      <point x="328" y="424"/>
      <point x="371" y="407" type="curve" smooth="yes"/>
      <point x="387" y="400"/>
      <point x="395" y="380"/>
      <point x="389" y="363" type="curve" smooth="yes"/>
      <point x="382" y="347"/>
      <point x="362" y="339"/>
    </contour>
  </outline>
</glyph>
<glyph name="w" format="1">
  <advance width="768"/>
  <unicode hex="0077"/>
  <outline>
    <contour>
      <point x="111" y="401" type="curve" smooth="yes"/>
      <point x="162" y="241"/>
      <point x="214" y="110"/>
      <point x="265" y="19" type="curve"/>
      <point x="236" y="36" type="line"/>
      <point x="239" y="36" type="line"/>
      <point x="210" y="19" type="line"/>
      <point x="259" y="109"/>
      <point x="320" y="284"/>
      <point x="348" y="398" type="curve" smooth="yes"/>
      <point x="352" y="415"/>
      <point x="371" y="426"/>
      <point x="388" y="422" type="curve" smooth="yes"/>
      <point x="405" y="418"/>
      <point x="416" y="399"/>
      <point x="412" y="382" type="curve" smooth="yes"/>
      <point x="382" y="264"/>
      <point x="319" y="81"/>
      <point x="268" y="-13" type="curve" smooth="yes"/>
      <point x="263" y="-22"/>
      <point x="250" y="-30"/>
      <point x="239" y="-30" type="curve" smooth="yes"/>
      <point x="236" y="-30" type="line" smooth="yes"/>
      <point x="225" y="-30"/>
      <point x="213" y="-22"/>
      <point x="207" y="-13" type="curve" smooth="yes"/>
      <point x="154" y="80"/>
      <point x="100" y="215"/>
      <point x="49" y="381" type="curve" smooth="yes"/>
      <point x="43" y="398"/>
      <point x="53" y="417"/>
      <point x="70" y="422" type="curve" smooth="yes"/>
      <point x="87" y="428"/>
      <point x="106" y="418"/>
    </contour>
    <contour>
      <point x="418" y="400" type="curve" smooth="yes"/>
      <point x="469" y="239"/>
      <point x="518" y="108"/>
      <point x="566" y="18" type="curve"/>
      <point x="537" y="35" type="line"/>
      <point x="540" y="35" type="line"/>
      <point x="511" y="18" type="line"/>
      <point x="563" y="108"/>
      <point x="627" y="284"/>
      <point x="655" y="397" type="curve" smooth="yes"/>
      <point x="659" y="414"/>
      <point x="678" y="425"/>
      <point x="695" y="421" type="curve" smooth="yes"/>
      <point x="712" y="417"/>
      <point x="723" y="398"/>
      <point x="719" y="381" type="curve" smooth="yes"/>
      <point x="689" y="262"/>
      <point x="623" y="80"/>
      <point x="569" y="-14" type="curve" smooth="yes"/>
      <point x="563" y="-24"/>
      <point x="551" y="-31"/>
      <point x="540" y="-31" type="curve" smooth="yes"/>
      <point x="537" y="-31" type="line" smooth="yes"/>
      <point x="526" y="-31"/>
      <point x="513" y="-23"/>
      <point x="508" y="-14" type="curve" smooth="yes"/>
      <point x="458" y="80"/>
      <point x="407" y="215"/>
      <point x="356" y="380" type="curve" smooth="yes"/>
      <point x="350" y="397"/>
      <point x="360" y="416"/>
      <point x="377" y="421" type="curve" smooth="yes"/>
      <point x="394" y="427"/>
      <point x="413" y="417"/>
    </contour>
  </outline>
</glyph>
<glyph name="x" format="1">
  <advance width="427"/>
  <unicode hex="0078"/>
  <outline>
    <contour>
      <point x="42" y="49" type="curve" smooth="yes"/>
      <point x="109" y="127"/>
      <point x="252" y="304"/>
      <point x="326" y="409" type="curve" smooth="yes"/>
      <point x="336" y="424"/>
      <point x="357" y="427"/>
      <point x="372" y="417" type="curve" smooth="yes"/>
      <point x="387" y="407"/>
      <point x="390" y="386"/>
      <point x="380" y="371" type="curve" smooth="yes"/>
      <point x="306" y="264"/>
      <point x="161" y="85"/>
      <point x="92" y="5" type="curve" smooth="yes"/>
      <point x="80" y="-8"/>
      <point x="59" y="-10"/>
      <point x="45" y="2" type="curve" smooth="yes"/>
      <point x="32" y="14"/>
      <point x="30" y="35"/>
    </contour>
    <contour>
      <point x="106" y="411" type="curve" smooth="yes"/>
      <point x="177" y="317"/>
      <point x="310" y="156"/>
      <point x="389" y="46" type="curve" smooth="yes"/>
      <point x="399" y="32"/>
      <point x="396" y="11"/>
      <point x="381" y="0" type="curve" smooth="yes"/>
      <point x="367" y="-10"/>
      <point x="346" y="-7"/>
      <point x="335" y="8" type="curve" smooth="yes"/>
      <point x="256" y="118"/>
      <point x="125" y="277"/>
      <point x="54" y="371" type="curve" smooth="yes"/>
      <point x="43" y="385"/>
      <point x="46" y="407"/>
      <point x="60" y="417" type="curve" smooth="yes"/>
      <point x="74" y="428"/>
      <point x="96" y="425"/>
    </contour>
  </outline>
</glyph>
<glyph name="quoteright" format="1">
  <advance width="250"/>
  <unicode hex="2019"/>
  <outline>
    <contour>
      <point x="153" y="602" type="curve" smooth="yes"/>
      <point x="157" y="586"/>
      <point x="160" y="564"/>
      <point x="160" y="540" type="curve" smooth="yes"/>
      <point x="160" y="484"/>
      <point x="141" y="428"/>
      <point x="110" y="386" type="curve" smooth="yes"/>
      <point x="99" y="371"/>
      <point x="78" y="368"/>
      <point x="64" y="378" type="curve" smooth="yes"/>
      <point x="49" y="389"/>
      <point x="46" y="410"/>
      <point x="56" y="424" type="curve" smooth="yes"/>
      <point x="79" y="456"/>
      <point x="94" y="498"/>
      <point x="94" y="540" type="curve" smooth="yes"/>
      <point x="94" y="556"/>
      <point x="93" y="572"/>
      <point x="89" y="582" type="curve" smooth="yes"/>
      <point x="84" y="599"/>
      <point x="94" y="618"/>
      <point x="111" y="624" type="curve" smooth="yes"/>
      <point x="128" y="629"/>
      <point x="147" y="619"/>
    </contour>
  </outline>
</glyph>
<glyph name="quotedblright" format="1">
  <advance width="420"/>
  <unicode hex="201D"/>
  <outline>
    <contour>
      <point x="153" y="602" type="curve" smooth="yes"/>
      <point x="157" y="586"/>
      <point x="160" y="564"/>
      <point x="160" y="540" type="curve" smooth="yes"/>
      <point x="160" y="484"/>
      <point x="141" y="428"/>
      <point x="110" y="386" type="curve" smooth="yes"/>
      <point x="99" y="371"/>
      <point x="78" y="368"/>
      <point x="64" y="378" type="curve" smooth="yes"/>
      <point x="49" y="389"/>
      <point x="46" y="410"/>
      <point x="56" y="424" type="curve" smooth="yes"/>
      <point x="79" y="456"/>
      <point x="94" y="498"/>
      <point x="94" y="540" type="curve" smooth="yes"/>
      <point x="94" y="556"/>
      <point x="93" y="572"/>
      <point x="89" y="582" type="curve" smooth="yes"/>
      <point x="84" y="599"/>
      <point x="94" y="618"/>
      <point x="111" y="624" type="curve" smooth="yes"/>
      <point x="128" y="629"/>
      <point x="147" y="619"/>
    </contour>
    <contour>
      <point x="323" y="592" type="curve" smooth="yes"/>
      <point x="327" y="576"/>
      <point x="330" y="554"/>
      <point x="330" y="530" type="curve" smooth="yes"/>
      <point x="330" y="474"/>
      <point x="310" y="424"/>
      <point x="279" y="382" type="curve" smooth="yes"/>
      <point x="268" y="367"/>
      <point x="247" y="364"/>
      <point x="233" y="374" type="curve" smooth="yes"/>
      <point x="218" y="385"/>
      <point x="215" y="406"/>
      <point x="225" y="420" type="curve" smooth="yes"/>
      <point x="248" y="452"/>
      <point x="264" y="488"/>
      <point x="264" y="530" type="curve" smooth="yes"/>
      <point x="264" y="546"/>
      <point x="263" y="562"/>
      <point x="259" y="572" type="curve" smooth="yes"/>
      <point x="254" y="589"/>
      <point x="264" y="608"/>
      <point x="281" y="614" type="curve" smooth="yes"/>
      <point x="298" y="619"/>
      <point x="317" y="609"/>
    </contour>
  </outline>
</glyph>
<glyph name="knBI" format="1">
  <advance width="760.0"/>
  <outline>
    <contour>
      <point x="63" y="445" type="curve" smooth="yes"/>
      <point x="94" y="474"/>
      <point x="146" y="496"/>
      <point x="192" y="496" type="curve" smooth="yes"/>
      <point x="271" y="496"/>
      <point x="309" y="441"/>
      <point x="309" y="381" type="curve" smooth="yes"/>
      <point x="309" y="340"/>
      <point x="278" y="293"/>
      <point x="214" y="231" type="curve" smooth="yes"/>
      <point x="176" y="194"/>
      <point x="149" y="157"/>
      <point x="149" y="123" type="curve" smooth="yes"/>
      <point x="149" y="86"/>
      <point x="172" y="54"/>
      <point x="221" y="54" type="curve" smooth="yes"/>
      <point x="293" y="54"/>
      <point x="329" y="93"/>
      <point x="364" y="162" type="curve" smooth="yes"/>
      <point x="369" y="172"/>
      <point x="382" y="180"/>
      <point x="393" y="180" type="curve" smooth="yes"/>
      <point x="395" y="180" type="line" smooth="yes"/>
      <point x="407" y="180"/>
      <point x="420" y="171"/>
      <point x="425" y="161" type="curve" smooth="yes"/>
      <point x="455" y="95"/>
      <point x="493" y="60"/>
      <point x="547" y="60" type="curve" smooth="yes"/>
      <point x="602" y="60"/>
      <point x="642" y="103"/>
      <point x="642" y="204" type="curve" smooth="yes"/>
      <point x="642" y="437"/>
      <point x="571" y="598"/>
      <point x="467" y="598" type="curve" smooth="yes"/>
      <point x="436" y="598"/>
      <point x="418" y="581"/>
      <point x="418" y="555" type="curve" smooth="yes"/>
      <point x="418" y="504"/>
      <point x="500" y="470"/>
      <point x="645" y="470" type="curve" smooth="yes"/>
      <point x="663" y="470"/>
      <point x="678" y="455"/>
      <point x="678" y="437" type="curve" smooth="yes"/>
      <point x="678" y="419"/>
      <point x="663" y="404"/>
      <point x="645" y="404" type="curve" smooth="yes"/>
      <point x="388" y="404"/>
      <point x="352" y="490"/>
      <point x="352" y="555" type="curve" smooth="yes"/>
      <point x="352" y="615"/>
      <point x="390" y="664"/>
      <point x="467" y="664" type="curve" smooth="yes"/>
      <point x="589" y="664"/>
      <point x="708" y="525"/>
      <point x="708" y="204" type="curve" smooth="yes"/>
      <point x="708" y="33"/>
      <point x="628" y="-6"/>
      <point x="547" y="-6" type="curve" smooth="yes"/>
      <point x="469" y="-6"/>
      <point x="409" y="35"/>
      <point x="365" y="133" type="curve"/>
      <point x="395" y="114" type="line"/>
      <point x="393" y="114" type="line"/>
      <point x="422" y="132" type="line"/>
      <point x="373" y="35"/>
      <point x="319" y="-12"/>
      <point x="221" y="-12" type="curve" smooth="yes"/>
      <point x="126" y="-12"/>
      <point x="83" y="52"/>
      <point x="83" y="123" type="curve" smooth="yes"/>
      <point x="83" y="171"/>
      <point x="114" y="226"/>
      <point x="168" y="279" type="curve" smooth="yes"/>
      <point x="212" y="321"/>
      <point x="243" y="352"/>
      <point x="243" y="381" type="curve" smooth="yes"/>
      <point x="243" y="407"/>
      <point x="225" y="430"/>
      <point x="192" y="430" type="curve" smooth="yes"/>
      <point x="162" y="430"/>
      <point x="128" y="416"/>
      <point x="109" y="397" type="curve" smooth="yes"/>
      <point x="96" y="385"/>
      <point x="75" y="385"/>
      <point x="62" y="398" type="curve" smooth="yes"/>
      <point x="50" y="411"/>
      <point x="50" y="432"/>
    </contour>
  </outline>
</glyph>
<glyph name="knBa" format="1">
  <advance width="760.0"/>
  <outline>
    <contour>
      <point x="53" y="441" type="curve" smooth="yes"/>
      <point x="83" y="467"/>
      <point x="139" y="492"/>
      <point x="192" y="492" type="curve" smooth="yes"/>
      <point x="277" y="492"/>
      <point x="312" y="445"/>
      <point x="312" y="387" type="curve" smooth="yes"/>
      <point x="312" y="339"/>
      <point x="289" y="301"/>
      <point x="211" y="240" type="curve" smooth="yes"/>
      <point x="170" y="207"/>
      <point x="141" y="167"/>
      <point x="141" y="126" type="curve" smooth="yes"/>
      <point x="141" y="86"/>
      <point x="172" y="54"/>
      <point x="221" y="54" type="curve" smooth="yes"/>
      <point x="293" y="54"/>
      <point x="329" y="93"/>
      <point x="364" y="162" type="curve" smooth="yes"/>
      <point x="369" y="172"/>
      <point x="382" y="180"/>
      <point x="393" y="180" type="curve" smooth="yes"/>
      <point x="395" y="180" type="line" smooth="yes"/>
      <point x="407" y="180"/>
      <point x="420" y="171"/>
      <point x="425" y="161" type="curve" smooth="yes"/>
      <point x="455" y="95"/>
      <point x="493" y="60"/>
      <point x="547" y="60" type="curve" smooth="yes"/>
      <point x="600" y="60"/>
      <point x="642" y="102"/>
      <point x="642" y="172" type="curve" smooth="yes"/>
      <point x="642" y="288"/>
      <point x="586" y="383"/>
      <point x="518" y="442" type="curve" smooth="yes"/>
      <point x="504" y="453"/>
      <point x="502" y="475"/>
      <point x="514" y="488" type="curve" smooth="yes"/>
      <point x="525" y="502"/>
      <point x="547" y="504"/>
      <point x="560" y="492" type="curve" smooth="yes"/>
      <point x="642" y="423"/>
      <point x="708" y="310"/>
      <point x="708" y="172" type="curve" smooth="yes"/>
      <point x="708" y="54"/>
      <point x="630" y="-6"/>
      <point x="547" y="-6" type="curve" smooth="yes"/>
      <point x="469" y="-6"/>
      <point x="409" y="35"/>
      <point x="365" y="133" type="curve"/>
      <point x="395" y="114" type="line"/>
      <point x="393" y="114" type="line"/>
      <point x="422" y="132" type="line"/>
      <point x="373" y="35"/>
      <point x="319" y="-12"/>
      <point x="221" y="-12" type="curve" smooth="yes"/>
      <point x="126" y="-12"/>
      <point x="75" y="54"/>
      <point x="75" y="126" type="curve" smooth="yes"/>
      <point x="75" y="185"/>
      <point x="110" y="245"/>
      <point x="171" y="292" type="curve" smooth="yes"/>
      <point x="221" y="331"/>
      <point x="246" y="353"/>
      <point x="246" y="387" type="curve" smooth="yes"/>
      <point x="246" y="413"/>
      <point x="223" y="426"/>
      <point x="192" y="426" type="curve" smooth="yes"/>
      <point x="155" y="426"/>
      <point x="117" y="409"/>
      <point x="97" y="391" type="curve" smooth="yes"/>
      <point x="83" y="379"/>
      <point x="62" y="381"/>
      <point x="50" y="394" type="curve" smooth="yes"/>
      <point x="38" y="408"/>
      <point x="40" y="429"/>
    </contour>
  </outline>
</glyph>
<glyph name="knCa" format="1">
  <advance width="861"/>
  <outline>
    <contour>
      <point x="63" y="445" type="curve" smooth="yes"/>
      <point x="94" y="474"/>
      <point x="146" y="496"/>
      <point x="192" y="496" type="curve" smooth="yes"/>
      <point x="271" y="496"/>
      <point x="309" y="441"/>
      <point x="309" y="381" type="curve" smooth="yes"/>
      <point x="309" y="340"/>
      <point x="278" y="293"/>
      <point x="214" y="231" type="curve" smooth="yes"/>
      <point x="176" y="194"/>
      <point x="149" y="157"/>
      <point x="149" y="123" type="curve" smooth="yes"/>
      <point x="149" y="86"/>
      <point x="172" y="54"/>
      <point x="221" y="54" type="curve" smooth="yes"/>
      <point x="293" y="54"/>
      <point x="329" y="93"/>
      <point x="364" y="162" type="curve" smooth="yes"/>
      <point x="369" y="172"/>
      <point x="382" y="180"/>
      <point x="393" y="180" type="curve" smooth="yes"/>
      <point x="395" y="180" type="line" smooth="yes"/>
      <point x="407" y="180"/>
      <point x="420" y="171"/>
      <point x="425" y="161" type="curve" smooth="yes"/>
      <point x="455" y="95"/>
      <point x="493" y="60"/>
      <point x="547" y="60" type="curve" smooth="yes"/>
      <point x="605" y="60"/>
      <point x="643" y="102"/>
      <point x="643" y="154" type="curve" smooth="yes"/>
      <point x="643" y="196"/>
      <point x="622" y="227"/>
      <point x="595" y="246" type="curve" smooth="yes"/>
      <point x="581" y="257"/>
      <point x="578" y="278"/>
      <point x="588" y="293" type="curve" smooth="yes"/>
      <point x="599" y="307"/>
      <point x="620" y="310"/>
      <point x="635" y="300" type="curve" smooth="yes"/>
      <point x="676" y="269"/>
      <point x="709" y="220"/>
      <point x="709" y="154" type="curve" smooth="yes"/>
      <point x="709" y="66"/>
      <point x="645" y="-6"/>
      <point x="547" y="-6" type="curve" smooth="yes"/>
      <point x="469" y="-6"/>
      <point x="409" y="35"/>
      <point x="365" y="133" type="curve"/>
      <point x="395" y="114" type="line"/>
      <point x="393" y="114" type="line"/>
      <point x="422" y="132" type="line"/>
      <point x="373" y="35"/>
      <point x="319" y="-12"/>
      <point x="221" y="-12" type="curve" smooth="yes"/>
      <point x="126" y="-12"/>
      <point x="83" y="52"/>
      <point x="83" y="123" type="curve" smooth="yes"/>
      <point x="83" y="171"/>
      <point x="114" y="226"/>
      <point x="168" y="279" type="curve" smooth="yes"/>
      <point x="212" y="321"/>
      <point x="243" y="352"/>
      <point x="243" y="381" type="curve" smooth="yes"/>
      <point x="243" y="407"/>
      <point x="225" y="430"/>
      <point x="192" y="430" type="curve" smooth="yes"/>
      <point x="162" y="430"/>
      <point x="128" y="416"/>
      <point x="109" y="397" type="curve" smooth="yes"/>
      <point x="96" y="385"/>
      <point x="75" y="385"/>
      <point x="62" y="398" type="curve" smooth="yes"/>
      <point x="50" y="411"/>
      <point x="50" y="432"/>
    </contour>
    <contour>
      <point x="456" y="312" type="curve" smooth="yes"/>
      <point x="745" y="312" type="line" smooth="yes"/>
      <point x="763" y="312"/>
      <point x="778" y="297"/>
      <point x="778" y="279" type="curve" smooth="yes"/>
      <point x="778" y="261"/>
      <point x="763" y="246"/>
      <point x="745" y="246" type="curve" smooth="yes"/>
      <point x="456" y="246" type="line" smooth="yes"/>
      <point x="438" y="246"/>
      <point x="423" y="261"/>
      <point x="423" y="279" type="curve" smooth="yes"/>
      <point x="423" y="297"/>
      <point x="438" y="312"/>
    </contour>
    <contour>
      <point x="458" y="470" type="curve" smooth="yes"/>
      <point x="615" y="470" type="line" smooth="yes"/>
      <point x="674" y="470"/>
      <point x="709" y="490"/>
      <point x="735" y="532" type="curve" smooth="yes"/>
      <point x="744" y="547"/>
      <point x="765" y="552"/>
      <point x="780" y="543" type="curve" smooth="yes"/>
      <point x="795" y="534"/>
      <point x="800" y="513"/>
      <point x="791" y="498" type="curve" smooth="yes"/>
      <point x="753" y="436"/>
      <point x="702" y="404"/>
      <point x="615" y="404" type="curve" smooth="yes"/>
      <point x="458" y="404" type="line" smooth="yes"/>
      <point x="440" y="404"/>
      <point x="425" y="419"/>
      <point x="425" y="437" type="curve" smooth="yes"/>
      <point x="425" y="455"/>
      <point x="440" y="470"/>
    </contour>
    <contour>
      <point x="573" y="285" type="curve" smooth="yes"/>
      <point x="573" y="409" type="line" smooth="yes"/>
      <point x="573" y="427"/>
      <point x="588" y="442"/>
      <point x="606" y="442" type="curve" smooth="yes"/>
      <point x="624" y="442"/>
      <point x="639" y="427"/>
      <point x="639" y="409" type="curve" smooth="yes"/>
      <point x="639" y="285" type="line" smooth="yes"/>
      <point x="639" y="267"/>
      <point x="624" y="252"/>
      <point x="606" y="252" type="curve" smooth="yes"/>
      <point x="588" y="252"/>
      <point x="573" y="267"/>
    </contour>
  </outline>
</glyph>
<glyph name="knDa.c2" format="1">
  <advance width="61"/>
  <outline>
    <contour>
      <point x="-1" y="-54" type="curve" smooth="yes"/>
      <point x="151" y="-54"/>
      <point x="226" y="-181"/>
      <point x="226" y="-258" type="curve" smooth="yes"/>
      <point x="226" y="-337"/>
      <point x="170" y="-385"/>
      <point x="101" y="-385" type="curve" smooth="yes"/>
      <point x="40" y="-385"/>
      <point x="2" y="-356"/>
      <point x="-33" y="-281" type="curve"/>
      <point x="-3" y="-300" type="line"/>
      <point x="-4" y="-300" type="line"/>
      <point x="27" y="-279" type="line"/>
      <point x="-1" y="-355"/>
      <point x="-53" y="-385"/>
      <point x="-110" y="-385" type="curve" smooth="yes"/>
      <point x="-176" y="-385"/>
      <point x="-230" y="-337"/>
      <point x="-230" y="-258" type="curve" smooth="yes"/>
      <point x="-230" y="-181"/>
      <point x="-154" y="-54"/>
    </contour>
    <contour>
      <point x="-1" y="-120" type="curve" smooth="yes"/>
      <point x="-104" y="-120"/>
      <point x="-164" y="-203"/>
      <point x="-164" y="-258" type="curve" smooth="yes"/>
      <point x="-164" y="-293"/>
      <point x="-142" y="-319"/>
      <point x="-110" y="-319" type="curve" smooth="yes"/>
      <point x="-77" y="-319"/>
      <point x="-51" y="-297"/>
      <point x="-35" y="-255" type="curve" smooth="yes"/>
      <point x="-30" y="-244"/>
      <point x="-17" y="-234"/>
      <point x="-4" y="-234" type="curve" smooth="yes"/>
      <point x="-3" y="-234" type="line" smooth="yes"/>
      <point x="9" y="-234"/>
      <point x="22" y="-243"/>
      <point x="27" y="-253" type="curve" smooth="yes"/>
      <point x="46" y="-294"/>
      <point x="64" y="-319"/>
      <point x="101" y="-319" type="curve" smooth="yes"/>
      <point x="134" y="-319"/>
      <point x="160" y="-295"/>
      <point x="160" y="-258" type="curve" smooth="yes"/>
      <point x="160" y="-203"/>
      <point x="101" y="-120"/>
    </contour>
  </outline>
</glyph>
<glyph name="knDa" format="1">
  <advance width="726"/>
  <outline>
    <contour>
      <point x="99" y="470" type="curve" smooth="yes"/>
      <point x="510" y="470" type="line" smooth="yes"/>
      <point x="569" y="470"/>
      <point x="604" y="490"/>
      <point x="630" y="532" type="curve" smooth="yes"/>
      <point x="639" y="547"/>
      <point x="660" y="552"/>
      <point x="675" y="543" type="curve" smooth="yes"/>
      <point x="690" y="534"/>
      <point x="695" y="513"/>
      <point x="686" y="498" type="curve" smooth="yes"/>
      <point x="648" y="436"/>
      <point x="597" y="404"/>
      <point x="510" y="404" type="curve" smooth="yes"/>
      <point x="99" y="404" type="line" smooth="yes"/>
      <point x="81" y="404"/>
      <point x="66" y="419"/>
      <point x="66" y="437" type="curve" smooth="yes"/>
      <point x="66" y="455"/>
      <point x="81" y="470"/>
    </contour>
    <contour>
      <point x="277" y="409" type="curve" smooth="yes"/>
      <point x="184" y="351"/>
      <point x="137" y="264"/>
      <point x="137" y="172" type="curve" smooth="yes"/>
      <point x="137" y="110"/>
      <point x="161" y="60"/>
      <point x="212" y="60" type="curve" smooth="yes"/>
      <point x="263" y="60"/>
      <point x="312" y="100"/>
      <point x="336" y="179" type="curve"/>
      <point x="368" y="136" type="line"/>
      <point x="366" y="136" type="line"/>
      <point x="397" y="181" type="line"/>
      <point x="426" y="103"/>
      <point x="462" y="60"/>
      <point x="517" y="60" type="curve" smooth="yes"/>
      <point x="570" y="60"/>
      <point x="598" y="107"/>
      <point x="598" y="172" type="curve" smooth="yes"/>
      <point x="598" y="263"/>
      <point x="546" y="350"/>
      <point x="451" y="409" type="curve" smooth="yes"/>
      <point x="436" y="418"/>
      <point x="431" y="439"/>
      <point x="440" y="454" type="curve" smooth="yes"/>
      <point x="449" y="469"/>
      <point x="470" y="474"/>
      <point x="485" y="465" type="curve" smooth="yes"/>
      <point x="604" y="392"/>
      <point x="664" y="283"/>
      <point x="664" y="172" type="curve" smooth="yes"/>
      <point x="664" y="53"/>
      <point x="600" y="-6"/>
      <point x="517" y="-6" type="curve" smooth="yes"/>
      <point x="440" y="-6"/>
      <point x="380" y="39"/>
      <point x="335" y="157" type="curve" smooth="yes"/>
      <point x="326" y="182"/>
      <point x="340" y="202"/>
      <point x="366" y="202" type="curve" smooth="yes"/>
      <point x="368" y="202" type="line" smooth="yes"/>
      <point x="393" y="202"/>
      <point x="407" y="183"/>
      <point x="400" y="159" type="curve" smooth="yes"/>
      <point x="364" y="40"/>
      <point x="285" y="-6"/>
      <point x="212" y="-6" type="curve" smooth="yes"/>
      <point x="131" y="-6"/>
      <point x="71" y="55"/>
      <point x="71" y="172" type="curve" smooth="yes"/>
      <point x="71" y="284"/>
      <point x="128" y="393"/>
      <point x="243" y="465" type="curve" smooth="yes"/>
      <point x="258" y="474"/>
      <point x="279" y="470"/>
      <point x="288" y="454" type="curve" smooth="yes"/>
      <point x="297" y="439"/>
      <point x="293" y="418"/>
    </contour>
  </outline>
</glyph>
<glyph name="knDda" format="1">
  <advance width="737.482212813"/>
  <outline>
    <contour>
      <point x="99" y="470" type="curve" smooth="yes"/>
      <point x="519" y="470" type="line" smooth="yes"/>
      <point x="578" y="470"/>
      <point x="613" y="490"/>
      <point x="639" y="532" type="curve" smooth="yes"/>
      <point x="648" y="547"/>
      <point x="669" y="552"/>
      <point x="684" y="543" type="curve" smooth="yes"/>
      <point x="699" y="534"/>
      <point x="704" y="513"/>
      <point x="695" y="498" type="curve" smooth="yes"/>
      <point x="657" y="436"/>
      <point x="606" y="404"/>
      <point x="519" y="404" type="curve" smooth="yes"/>
      <point x="99" y="404" type="line" smooth="yes"/>
      <point x="81" y="404"/>
      <point x="66" y="419"/>
      <point x="66" y="437" type="curve" smooth="yes"/>
      <point x="66" y="455"/>
      <point x="81" y="470"/>
    </contour>
    <contour>
      <point x="510" y="305" type="curve" smooth="yes"/>
      <point x="537" y="304"/>
      <point x="554" y="315"/>
      <point x="554" y="336" type="curve" smooth="yes"/>
      <point x="554" y="365"/>
      <point x="511" y="399"/>
      <point x="446" y="404" type="curve" smooth="yes"/>
      <point x="428" y="405"/>
      <point x="414" y="422"/>
      <point x="415" y="439" type="curve" smooth="yes"/>
      <point x="416" y="457"/>
      <point x="433" y="471"/>
      <point x="450" y="470" type="curve" smooth="yes"/>
      <point x="579" y="461"/>
      <point x="620" y="383"/>
      <point x="620" y="336" type="curve" smooth="yes"/>
      <point x="620" y="283"/>
      <point x="591" y="236"/>
      <point x="508" y="239" type="curve" smooth="yes"/>
      <point x="490" y="240"/>
      <point x="475" y="255"/>
      <point x="476" y="273" type="curve" smooth="yes"/>
      <point x="477" y="291"/>
      <point x="492" y="306"/>
    </contour>
    <contour>
      <point x="303" y="407" type="curve" smooth="yes"/>
      <point x="193" y="358"/>
      <point x="137" y="263"/>
      <point x="137" y="172" type="curve" smooth="yes"/>
      <point x="137" y="107"/>
      <point x="171" y="60"/>
      <point x="222" y="60" type="curve" smooth="yes"/>
      <point x="273" y="60"/>
      <point x="311" y="99"/>
      <point x="335" y="169" type="curve" smooth="yes"/>
      <point x="339" y="181"/>
      <point x="353" y="191"/>
      <point x="366" y="191" type="curve" smooth="yes"/>
      <point x="367" y="191" type="line" smooth="yes"/>
      <point x="379" y="191"/>
      <point x="393" y="182"/>
      <point x="397" y="171" type="curve" smooth="yes"/>
      <point x="426" y="102"/>
      <point x="452" y="60"/>
      <point x="507" y="60" type="curve" smooth="yes"/>
      <point x="567" y="60"/>
      <point x="601" y="104"/>
      <point x="601" y="157" type="curve" smooth="yes"/>
      <point x="601" y="201"/>
      <point x="571" y="239"/>
      <point x="493" y="239" type="curve" smooth="yes"/>
      <point x="487" y="239"/>
      <point x="458" y="239"/>
      <point x="447" y="239" type="curve" smooth="yes"/>
      <point x="429" y="239"/>
      <point x="414" y="254"/>
      <point x="414" y="272" type="curve" smooth="yes"/>
      <point x="414" y="290"/>
      <point x="429" y="305"/>
      <point x="447" y="305" type="curve" smooth="yes"/>
      <point x="458" y="305"/>
      <point x="487" y="305"/>
      <point x="493" y="305" type="curve" smooth="yes"/>
      <point x="633" y="305"/>
      <point x="667" y="229"/>
      <point x="667" y="157" type="curve" smooth="yes"/>
      <point x="667" y="68"/>
      <point x="607" y="-6"/>
      <point x="507" y="-6" type="curve" smooth="yes"/>
      <point x="430" y="-6"/>
      <point x="382" y="38"/>
      <point x="337" y="145" type="curve"/>
      <point x="367" y="125" type="line"/>
      <point x="366" y="125" type="line"/>
      <point x="397" y="147" type="line"/>
      <point x="361" y="39"/>
      <point x="295" y="-6"/>
      <point x="222" y="-6" type="curve" smooth="yes"/>
      <point x="141" y="-6"/>
      <point x="71" y="57"/>
      <point x="71" y="172" type="curve" smooth="yes"/>
      <point x="71" y="285"/>
      <point x="139" y="406"/>
      <point x="277" y="467" type="curve" smooth="yes"/>
      <point x="293" y="474"/>
      <point x="313" y="467"/>
      <point x="320" y="450" type="curve" smooth="yes"/>
      <point x="327" y="434"/>
      <point x="320" y="414"/>
    </contour>
  </outline>
</glyph>
<glyph name="knEsign" format="1">
  <advance width="0"/>
  <outline>
    <contour>
      <point x="-346" y="470" type="curve" smooth="yes"/>
      <point x="-206" y="470" type="line" smooth="yes"/>
      <point x="-132" y="470"/>
      <point x="-80" y="494"/>
      <point x="-80" y="541" type="curve" smooth="yes"/>
      <point x="-80" y="575"/>
      <point x="-105" y="598"/>
      <point x="-144" y="598" type="curve" smooth="yes"/>
      <point x="-198" y="598"/>
      <point x="-227" y="537"/>
      <point x="-227" y="467" type="curve" smooth="yes"/>
      <point x="-227" y="449"/>
      <point x="-242" y="434"/>
      <point x="-260" y="434" type="curve" smooth="yes"/>
      <point x="-278" y="434"/>
      <point x="-293" y="449"/>
      <point x="-293" y="467" type="curve" smooth="yes"/>
      <point x="-293" y="593"/>
      <point x="-226" y="664"/>
      <point x="-144" y="664" type="curve" smooth="yes"/>
      <point x="-61" y="664"/>
      <point x="-14" y="611"/>
      <point x="-14" y="541" type="curve" smooth="yes"/>
      <point x="-14" y="470"/>
      <point x="-64" y="404"/>
      <point x="-206" y="404" type="curve" smooth="yes"/>
      <point x="-346" y="404" type="line" smooth="yes"/>
      <point x="-364" y="404"/>
      <point x="-379" y="419"/>
      <point x="-379" y="437" type="curve" smooth="yes"/>
      <point x="-379" y="455"/>
      <point x="-364" y="470"/>
    </contour>
  </outline>
</glyph>
<glyph name="knGa" format="1">
  <advance width="675.0"/>
  <outline>
    <contour>
      <point x="98" y="470" type="curve" smooth="yes"/>
      <point x="459" y="470" type="line" smooth="yes"/>
      <point x="518" y="470"/>
      <point x="553" y="490"/>
      <point x="579" y="532" type="curve" smooth="yes"/>
      <point x="588" y="547"/>
      <point x="609" y="552"/>
      <point x="624" y="543" type="curve" smooth="yes"/>
      <point x="639" y="534"/>
      <point x="644" y="513"/>
      <point x="635" y="498" type="curve" smooth="yes"/>
      <point x="597" y="436"/>
      <point x="546" y="404"/>
      <point x="459" y="404" type="curve" smooth="yes"/>
      <point x="98" y="404" type="line" smooth="yes"/>
      <point x="80" y="404"/>
      <point x="65" y="419"/>
      <point x="65" y="437" type="curve" smooth="yes"/>
      <point x="65" y="455"/>
      <point x="80" y="470"/>
    </contour>
    <contour>
      <point x="501" y="34" type="curve" smooth="yes"/>
      <point x="510" y="78"/>
      <point x="517" y="124"/>
      <point x="517" y="172" type="curve" smooth="yes"/>
      <point x="517" y="262"/>
      <point x="464" y="356"/>
      <point x="353" y="407" type="curve" smooth="yes"/>
      <point x="337" y="415"/>
      <point x="330" y="435"/>
      <point x="337" y="451" type="curve" smooth="yes"/>
      <point x="345" y="467"/>
      <point x="365" y="474"/>
      <point x="381" y="467" type="curve" smooth="yes"/>
      <point x="520" y="402"/>
      <point x="583" y="284"/>
      <point x="583" y="172" type="curve" smooth="yes"/>
      <point x="583" y="120"/>
      <point x="576" y="68"/>
      <point x="565" y="20" type="curve" smooth="yes"/>
      <point x="561" y="3"/>
      <point x="543" y="-9"/>
      <point x="526" y="-5" type="curve" smooth="yes"/>
      <point x="509" y="-1"/>
      <point x="497" y="17"/>
    </contour>
    <contour>
      <point x="323" y="407" type="curve" smooth="yes"/>
      <point x="214" y="356"/>
      <point x="166" y="263"/>
      <point x="166" y="172" type="curve" smooth="yes"/>
      <point x="166" y="125"/>
      <point x="171" y="78"/>
      <point x="184" y="37" type="curve" smooth="yes"/>
      <point x="190" y="20"/>
      <point x="180" y="1"/>
      <point x="163" y="-4" type="curve" smooth="yes"/>
      <point x="146" y="-10"/>
      <point x="127" y="0"/>
      <point x="122" y="17" type="curve" smooth="yes"/>
      <point x="107" y="64"/>
      <point x="100" y="117"/>
      <point x="100" y="172" type="curve" smooth="yes"/>
      <point x="100" y="285"/>
      <point x="158" y="404"/>
      <point x="295" y="467" type="curve" smooth="yes"/>
      <point x="311" y="474"/>
      <point x="331" y="467"/>
      <point x="339" y="451" type="curve" smooth="yes"/>
      <point x="346" y="435"/>
      <point x="339" y="415"/>
    </contour>
  </outline>
</glyph>
<glyph name="knGha" format="1">
  <advance width="867"/>
  <outline>
    <contour>
      <point x="400" y="-89" type="curve" smooth="yes"/>
      <point x="400" y="-192" type="line" smooth="yes"/>
      <point x="400" y="-210"/>
      <point x="385" y="-225"/>
      <point x="367" y="-225" type="curve" smooth="yes"/>
      <point x="349" y="-225"/>
      <point x="334" y="-210"/>
      <point x="334" y="-192" type="curve" smooth="yes"/>
      <point x="334" y="-89" type="line" smooth="yes"/>
      <point x="334" y="-71"/>
      <point x="349" y="-56"/>
      <point x="367" y="-56" type="curve" smooth="yes"/>
      <point x="385" y="-56"/>
      <point x="400" y="-71"/>
    </contour>
    <contour>
      <point x="99" y="470" type="curve" smooth="yes"/>
      <point x="514" y="470" type="line" smooth="yes"/>
      <point x="573" y="470"/>
      <point x="608" y="490"/>
      <point x="634" y="532" type="curve" smooth="yes"/>
      <point x="643" y="547"/>
      <point x="664" y="552"/>
      <point x="679" y="543" type="curve" smooth="yes"/>
      <point x="694" y="534"/>
      <point x="699" y="513"/>
      <point x="690" y="498" type="curve" smooth="yes"/>
      <point x="652" y="436"/>
      <point x="601" y="404"/>
      <point x="514" y="404" type="curve" smooth="yes"/>
      <point x="99" y="404" type="line" smooth="yes"/>
      <point x="81" y="404"/>
      <point x="66" y="419"/>
      <point x="66" y="437" type="curve" smooth="yes"/>
      <point x="66" y="455"/>
      <point x="81" y="470"/>
    </contour>
    <contour>
      <point x="161" y="199" type="curve" smooth="yes"/>
      <point x="142" y="184"/>
      <point x="129" y="158"/>
      <point x="129" y="128" type="curve" smooth="yes"/>
      <point x="129" y="95"/>
      <point x="152" y="54"/>
      <point x="205" y="54" type="curve" smooth="yes"/>
      <point x="263" y="54"/>
      <point x="309" y="92"/>
      <point x="335" y="159" type="curve" smooth="yes"/>
      <point x="340" y="171"/>
      <point x="353" y="180"/>
      <point x="366" y="180" type="curve" smooth="yes"/>
      <point x="368" y="180" type="line" smooth="yes"/>
      <point x="380" y="180"/>
      <point x="393" y="171"/>
      <point x="398" y="161" type="curve" smooth="yes"/>
      <point x="428" y="95"/>
      <point x="463" y="60"/>
      <point x="517" y="60" type="curve" smooth="yes"/>
      <point x="570" y="60"/>
      <point x="602" y="104"/>
      <point x="602" y="172" type="curve" smooth="yes"/>
      <point x="602" y="212"/>
      <point x="595" y="258"/>
      <point x="585" y="288" type="curve" smooth="yes"/>
      <point x="580" y="305"/>
      <point x="590" y="324"/>
      <point x="607" y="330" type="curve" smooth="yes"/>
      <point x="624" y="335"/>
      <point x="643" y="325"/>
      <point x="649" y="308" type="curve" smooth="yes"/>
      <point x="659" y="272"/>
      <point x="668" y="218"/>
      <point x="668" y="172" type="curve" smooth="yes"/>
      <point x="668" y="52"/>
      <point x="600" y="-6"/>
      <point x="517" y="-6" type="curve" smooth="yes"/>
      <point x="439" y="-6"/>
      <point x="382" y="35"/>
      <point x="338" y="133" type="curve"/>
      <point x="368" y="114" type="line"/>
      <point x="366" y="114" type="line"/>
      <point x="397" y="135" type="line"/>
      <point x="359" y="36"/>
      <point x="287" y="-12"/>
      <point x="205" y="-12" type="curve" smooth="yes"/>
      <point x="106" y="-12"/>
      <point x="63" y="65"/>
      <point x="63" y="128" type="curve"/>
      <point x="63" y="182"/>
      <point x="88" y="226"/>
      <point x="121" y="251" type="curve" smooth="yes"/>
      <point x="135" y="262"/>
      <point x="156" y="259"/>
      <point x="167" y="245" type="curve" smooth="yes"/>
      <point x="178" y="231"/>
      <point x="175" y="210"/>
    </contour>
    <contour>
      <point x="337" y="411" type="curve" smooth="yes"/>
      <point x="323" y="400"/>
      <point x="308" y="379"/>
      <point x="308" y="354" type="curve" smooth="yes"/>
      <point x="308" y="323"/>
      <point x="333" y="300"/>
      <point x="367" y="300" type="curve" smooth="yes"/>
      <point x="401" y="300"/>
      <point x="427" y="323"/>
      <point x="427" y="355" type="curve" smooth="yes"/>
      <point x="427" y="376"/>
      <point x="420" y="398"/>
      <point x="403" y="410" type="curve" smooth="yes"/>
      <point x="388" y="421"/>
      <point x="385" y="442"/>
      <point x="395" y="456" type="curve" smooth="yes"/>
      <point x="406" y="471"/>
      <point x="427" y="474"/>
      <point x="441" y="464" type="curve" smooth="yes"/>
      <point x="474" y="440"/>
      <point x="493" y="398"/>
      <point x="493" y="355" type="curve" smooth="yes"/>
      <point x="493" y="287"/>
      <point x="443" y="234"/>
      <point x="367" y="234" type="curve" smooth="yes"/>
      <point x="291" y="234"/>
      <point x="242" y="289"/>
      <point x="242" y="354" type="curve" smooth="yes"/>
      <point x="242" y="401"/>
      <point x="269" y="442"/>
      <point x="297" y="463" type="curve" smooth="yes"/>
      <point x="311" y="474"/>
      <point x="332" y="471"/>
      <point x="343" y="457" type="curve" smooth="yes"/>
      <point x="354" y="443"/>
      <point x="351" y="422"/>
    </contour>
    <contour>
      <point x="800" y="356" type="curve" smooth="yes"/>
      <point x="813" y="327"/>
      <point x="819" y="302"/>
      <point x="819" y="274" type="curve" smooth="yes"/>
      <point x="819" y="226"/>
      <point x="787" y="166"/>
      <point x="712" y="166" type="curve" smooth="yes"/>
      <point x="649" y="166"/>
      <point x="623" y="194"/>
      <point x="605" y="223" type="curve" smooth="yes"/>
      <point x="595" y="238"/>
      <point x="599" y="259"/>
      <point x="614" y="268" type="curve" smooth="yes"/>
      <point x="629" y="278"/>
      <point x="650" y="274"/>
      <point x="659" y="259" type="curve" smooth="yes"/>
      <point x="669" y="246"/>
      <point x="681" y="232"/>
      <point x="712" y="232" type="curve" smooth="yes"/>
      <point x="741" y="232"/>
      <point x="753" y="256"/>
      <point x="753" y="274" type="curve" smooth="yes"/>
      <point x="753" y="292"/>
      <point x="749" y="309"/>
      <point x="740" y="328" type="curve" smooth="yes"/>
      <point x="733" y="344"/>
      <point x="740" y="365"/>
      <point x="756" y="372" type="curve" smooth="yes"/>
      <point x="772" y="379"/>
      <point x="793" y="372"/>
    </contour>
  </outline>
</glyph>
<glyph name="knKa" format="1">
  <advance width="741"/>
  <outline>
    <contour>
      <point x="109" y="470" type="curve" smooth="yes"/>
      <point x="515" y="470" type="line" smooth="yes"/>
      <point x="574" y="470"/>
      <point x="609" y="490"/>
      <point x="635" y="532" type="curve" smooth="yes"/>
      <point x="644" y="547"/>
      <point x="665" y="552"/>
      <point x="680" y="543" type="curve" smooth="yes"/>
      <point x="695" y="534"/>
      <point x="700" y="513"/>
      <point x="691" y="498" type="curve" smooth="yes"/>
      <point x="653" y="436"/>
      <point x="602" y="404"/>
      <point x="515" y="404" type="curve" smooth="yes"/>
      <point x="109" y="404" type="line" smooth="yes"/>
      <point x="91" y="404"/>
      <point x="76" y="419"/>
      <point x="76" y="437" type="curve" smooth="yes"/>
      <point x="76" y="455"/>
      <point x="91" y="470"/>
    </contour>
    <contour>
      <point x="105" y="325" type="curve" smooth="yes"/>
      <point x="626" y="325" type="line" smooth="yes"/>
      <point x="644" y="325"/>
      <point x="659" y="310"/>
      <point x="659" y="292" type="curve" smooth="yes"/>
      <point x="659" y="274"/>
      <point x="644" y="259"/>
      <point x="626" y="259" type="curve" smooth="yes"/>
      <point x="105" y="259" type="line" smooth="yes"/>
      <point x="87" y="259"/>
      <point x="72" y="274"/>
      <point x="72" y="292" type="curve" smooth="yes"/>
      <point x="72" y="310"/>
      <point x="87" y="325"/>
    </contour>
    <contour>
      <point x="334" y="296" type="curve" smooth="yes"/>
      <point x="339" y="410" type="line" smooth="yes"/>
      <point x="340" y="428"/>
      <point x="356" y="443"/>
      <point x="373" y="442" type="curve" smooth="yes"/>
      <point x="391" y="441"/>
      <point x="406" y="425"/>
      <point x="405" y="408" type="curve" smooth="yes"/>
      <point x="400" y="294" type="line" smooth="yes"/>
      <point x="399" y="276"/>
      <point x="383" y="261"/>
      <point x="366" y="262" type="curve" smooth="yes"/>
      <point x="348" y="263"/>
      <point x="333" y="279"/>
    </contour>
    <contour>
      <point x="321" y="260" type="curve" smooth="yes"/>
      <point x="258" y="247"/>
      <point x="218" y="204"/>
      <point x="219" y="151" type="curve" smooth="yes"/>
      <point x="220" y="98"/>
      <point x="271" y="47"/>
      <point x="367" y="47" type="curve" smooth="yes"/>
      <point x="466" y="47"/>
      <point x="514" y="100"/>
      <point x="514" y="154" type="curve" smooth="yes"/>
      <point x="514" y="207"/>
      <point x="476" y="250"/>
      <point x="421" y="260" type="curve" smooth="yes"/>
      <point x="404" y="263"/>
      <point x="391" y="280"/>
      <point x="395" y="298" type="curve" smooth="yes"/>
      <point x="398" y="315"/>
      <point x="415" y="328"/>
      <point x="433" y="324" type="curve" smooth="yes"/>
      <point x="522" y="308"/>
      <point x="580" y="237"/>
      <point x="580" y="154" type="curve" smooth="yes"/>
      <point x="580" y="76"/>
      <point x="526" y="-19"/>
      <point x="367" y="-19" type="curve" smooth="yes"/>
      <point x="211" y="-19"/>
      <point x="154" y="74"/>
      <point x="153" y="151" type="curve" smooth="yes"/>
      <point x="152" y="230"/>
      <point x="208" y="305"/>
      <point x="309" y="324" type="curve" smooth="yes"/>
      <point x="326" y="328"/>
      <point x="344" y="316"/>
      <point x="347" y="298" type="curve" smooth="yes"/>
      <point x="351" y="281"/>
      <point x="339" y="263"/>
    </contour>
  </outline>
</glyph>
<glyph name="knNa.a" format="1">
  <advance width="696"/>
  <outline>
    <contour>
      <point x="100" y="470" type="curve" smooth="yes"/>
      <point x="482" y="470" type="line" smooth="yes"/>
      <point x="500" y="470"/>
      <point x="515" y="455"/>
      <point x="515" y="437" type="curve" smooth="yes"/>
      <point x="515" y="419"/>
      <point x="500" y="404"/>
      <point x="482" y="404" type="curve" smooth="yes"/>
      <point x="100" y="404" type="line" smooth="yes"/>
      <point x="82" y="404"/>
      <point x="67" y="419"/>
      <point x="67" y="437" type="curve" smooth="yes"/>
      <point x="67" y="455"/>
      <point x="82" y="470"/>
    </contour>
    <contour>
      <point x="157" y="-20" type="curve" smooth="yes"/>
      <point x="118" y="15"/>
      <point x="83" y="73"/>
      <point x="83" y="141" type="curve" smooth="yes"/>
      <point x="83" y="227"/>
      <point x="136" y="293"/>
      <point x="220" y="293" type="curve" smooth="yes"/>
      <point x="300" y="293"/>
      <point x="347" y="241"/>
      <point x="391" y="148" type="curve" smooth="yes"/>
      <point x="415" y="97"/>
      <point x="434" y="60"/>
      <point x="479" y="60" type="curve" smooth="yes"/>
      <point x="532" y="60"/>
      <point x="570" y="104"/>
      <point x="570" y="172" type="curve" smooth="yes"/>
      <point x="570" y="262"/>
      <point x="509" y="357"/>
      <point x="397" y="407" type="curve" smooth="yes"/>
      <point x="380" y="414"/>
      <point x="373" y="434"/>
      <point x="380" y="450" type="curve" smooth="yes"/>
      <point x="387" y="467"/>
      <point x="407" y="474"/>
      <point x="423" y="467" type="curve" smooth="yes"/>
      <point x="565" y="405"/>
      <point x="636" y="284"/>
      <point x="636" y="172" type="curve" smooth="yes"/>
      <point x="636" y="56"/>
      <point x="562" y="-6"/>
      <point x="479" y="-6" type="curve" smooth="yes"/>
      <point x="412" y="-6"/>
      <point x="371" y="35"/>
      <point x="331" y="120" type="curve" smooth="yes"/>
      <point x="303" y="181"/>
      <point x="276" y="227"/>
      <point x="220" y="227" type="curve" smooth="yes"/>
      <point x="172" y="227"/>
      <point x="149" y="185"/>
      <point x="149" y="141" type="curve" smooth="yes"/>
      <point x="149" y="93"/>
      <point x="174" y="53"/>
      <point x="201" y="28" type="curve" smooth="yes"/>
      <point x="214" y="16"/>
      <point x="215" y="-5"/>
      <point x="203" y="-18" type="curve" smooth="yes"/>
      <point x="191" y="-31"/>
      <point x="170" y="-32"/>
    </contour>
  </outline>
</glyph>
<glyph name="knNa.c2" format="1">
  <advance width="184"/>
  <outline>
    <contour>
      <point x="-167" y="-366" type="curve" smooth="yes"/>
      <point x="-201" y="-338"/>
      <point x="-230" y="-290"/>
      <point x="-230" y="-236" type="curve" smooth="yes"/>
      <point x="-230" y="-166"/>
      <point x="-186" y="-111"/>
      <point x="-113" y="-111" type="curve" smooth="yes"/>
      <point x="-47" y="-111"/>
      <point x="-7" y="-152"/>
      <point x="29" y="-227" type="curve" smooth="yes"/>
      <point x="46" y="-262"/>
      <point x="60" y="-291"/>
      <point x="94" y="-291" type="curve" smooth="yes"/>
      <point x="133" y="-291"/>
      <point x="161" y="-259"/>
      <point x="161" y="-211" type="curve" smooth="yes"/>
      <point x="161" y="-111"/>
      <point x="119" y="15"/>
      <point x="57" y="111" type="curve" smooth="yes"/>
      <point x="48" y="126"/>
      <point x="52" y="147"/>
      <point x="67" y="157" type="curve" smooth="yes"/>
      <point x="82" y="166"/>
      <point x="103" y="162"/>
      <point x="113" y="147" type="curve" smooth="yes"/>
      <point x="181" y="39"/>
      <point x="227" y="-101"/>
      <point x="227" y="-211" type="curve" smooth="yes"/>
      <point x="227" y="-305"/>
      <point x="165" y="-357"/>
      <point x="94" y="-357" type="curve" smooth="yes"/>
      <point x="38" y="-357"/>
      <point x="4" y="-324"/>
      <point x="-31" y="-255" type="curve" smooth="yes"/>
      <point x="-51" y="-212"/>
      <point x="-71" y="-177"/>
      <point x="-113" y="-177" type="curve" smooth="yes"/>
      <point x="-148" y="-177"/>
      <point x="-164" y="-206"/>
      <point x="-164" y="-236" type="curve" smooth="yes"/>
      <point x="-164" y="-270"/>
      <point x="-145" y="-298"/>
      <point x="-125" y="-316" type="curve" smooth="yes"/>
      <point x="-111" y="-327"/>
      <point x="-109" y="-349"/>
      <point x="-121" y="-362" type="curve" smooth="yes"/>
      <point x="-132" y="-376"/>
      <point x="-154" y="-378"/>
    </contour>
  </outline>
</glyph>
<glyph name="knNa" format="1">
  <advance width="696"/>
  <outline>
    <contour>
      <point x="99" y="470" type="curve" smooth="yes"/>
      <point x="481" y="470" type="line" smooth="yes"/>
      <point x="540" y="470"/>
      <point x="575" y="490"/>
      <point x="601" y="532" type="curve" smooth="yes"/>
      <point x="610" y="547"/>
      <point x="631" y="552"/>
      <point x="646" y="543" type="curve" smooth="yes"/>
      <point x="661" y="534"/>
      <point x="666" y="513"/>
      <point x="657" y="498" type="curve" smooth="yes"/>
      <point x="619" y="436"/>
      <point x="568" y="404"/>
      <point x="481" y="404" type="curve" smooth="yes"/>
      <point x="99" y="404" type="line" smooth="yes"/>
      <point x="81" y="404"/>
      <point x="66" y="419"/>
      <point x="66" y="437" type="curve" smooth="yes"/>
      <point x="66" y="455"/>
      <point x="81" y="470"/>
    </contour>
    <contour>
      <point x="86" y="5" type="curve" smooth="yes"/>
      <point x="89" y="129"/>
      <point x="108" y="202"/>
      <point x="143" y="236" type="curve" smooth="yes"/>
      <point x="174" y="268"/>
      <point x="198" y="274"/>
      <point x="231" y="274" type="curve" smooth="yes"/>
      <point x="287" y="274"/>
      <point x="338" y="244"/>
      <point x="383" y="148" type="curve" smooth="yes"/>
      <point x="407" y="96"/>
      <point x="428" y="60"/>
      <point x="478" y="60" type="curve" smooth="yes"/>
      <point x="531" y="60"/>
      <point x="569" y="104"/>
      <point x="569" y="172" type="curve" smooth="yes"/>
      <point x="569" y="262"/>
      <point x="508" y="357"/>
      <point x="396" y="407" type="curve" smooth="yes"/>
      <point x="379" y="414"/>
      <point x="372" y="434"/>
      <point x="379" y="450" type="curve" smooth="yes"/>
      <point x="386" y="467"/>
      <point x="406" y="474"/>
      <point x="422" y="467" type="curve" smooth="yes"/>
      <point x="564" y="405"/>
      <point x="635" y="284"/>
      <point x="635" y="172" type="curve" smooth="yes"/>
      <point x="635" y="56"/>
      <point x="561" y="-6"/>
      <point x="478" y="-6" type="curve" smooth="yes"/>
      <point x="402" y="-6"/>
      <point x="363" y="36"/>
      <point x="323" y="120" type="curve" smooth="yes"/>
      <point x="296" y="178"/>
      <point x="269" y="208"/>
      <point x="231" y="208" type="curve" smooth="yes"/>
      <point x="216" y="208"/>
      <point x="204" y="204"/>
      <point x="189" y="190" type="curve" smooth="yes"/>
      <point x="162" y="162"/>
      <point x="155" y="99"/>
      <point x="152" y="3" type="curve" smooth="yes"/>
      <point x="152" y="-15"/>
      <point x="136" y="-29"/>
      <point x="118" y="-29" type="curve" smooth="yes"/>
      <point x="100" y="-29"/>
      <point x="86" y="-13"/>
    </contour>
  </outline>
</glyph>
<glyph name="knNga" format="1">
  <advance width="760.0"/>
  <outline>
    <contour>
      <point x="426" y="399" type="curve" smooth="yes"/>
      <point x="485" y="399"/>
      <point x="524" y="344"/>
      <point x="524" y="302" type="curve" smooth="yes"/>
      <point x="524" y="248"/>
      <point x="486" y="202"/>
      <point x="425" y="202" type="curve" smooth="yes"/>
      <point x="367" y="202"/>
      <point x="325" y="252"/>
      <point x="325" y="301" type="curve" smooth="yes"/>
      <point x="325" y="347"/>
      <point x="366" y="399"/>
    </contour>
    <contour>
      <point x="63" y="445" type="curve" smooth="yes"/>
      <point x="94" y="474"/>
      <point x="143" y="496"/>
      <point x="189" y="496" type="curve" smooth="yes"/>
      <point x="258" y="496"/>
      <point x="299" y="443"/>
      <point x="299" y="396" type="curve" smooth="yes"/>
      <point x="299" y="356"/>
      <point x="257" y="294"/>
      <point x="206" y="234" type="curve" smooth="yes"/>
      <point x="171" y="192"/>
      <point x="149" y="158"/>
      <point x="149" y="123" type="curve" smooth="yes"/>
      <point x="149" y="86"/>
      <point x="172" y="54"/>
      <point x="221" y="54" type="curve" smooth="yes"/>
      <point x="293" y="54"/>
      <point x="329" y="93"/>
      <point x="364" y="162" type="curve" smooth="yes"/>
      <point x="369" y="172"/>
      <point x="382" y="180"/>
      <point x="393" y="180" type="curve" smooth="yes"/>
      <point x="395" y="180" type="line" smooth="yes"/>
      <point x="407" y="180"/>
      <point x="420" y="171"/>
      <point x="425" y="161" type="curve" smooth="yes"/>
      <point x="455" y="95"/>
      <point x="493" y="60"/>
      <point x="547" y="60" type="curve" smooth="yes"/>
      <point x="605" y="60"/>
      <point x="643" y="102"/>
      <point x="643" y="154" type="curve" smooth="yes"/>
      <point x="643" y="183"/>
      <point x="634" y="218"/>
      <point x="625" y="240" type="curve" smooth="yes"/>
      <point x="618" y="256"/>
      <point x="625" y="276"/>
      <point x="642" y="283" type="curve" smooth="yes"/>
      <point x="658" y="290"/>
      <point x="678" y="283"/>
      <point x="685" y="266" type="curve" smooth="yes"/>
      <point x="698" y="238"/>
      <point x="709" y="193"/>
      <point x="709" y="154" type="curve" smooth="yes"/>
      <point x="709" y="66"/>
      <point x="645" y="-6"/>
      <point x="547" y="-6" type="curve" smooth="yes"/>
      <point x="469" y="-6"/>
      <point x="409" y="35"/>
      <point x="365" y="133" type="curve"/>
      <point x="395" y="114" type="line"/>
      <point x="393" y="114" type="line"/>
      <point x="422" y="132" type="line"/>
      <point x="373" y="35"/>
      <point x="319" y="-12"/>
      <point x="221" y="-12" type="curve" smooth="yes"/>
      <point x="126" y="-12"/>
      <point x="83" y="52"/>
      <point x="83" y="123" type="curve" smooth="yes"/>
      <point x="83" y="170"/>
      <point x="107" y="220"/>
      <point x="156" y="276" type="curve" smooth="yes"/>
      <point x="193" y="320"/>
      <point x="233" y="366"/>
      <point x="233" y="396" type="curve" smooth="yes"/>
      <point x="233" y="415"/>
      <point x="212" y="430"/>
      <point x="189" y="430" type="curve" smooth="yes"/>
      <point x="159" y="430"/>
      <point x="128" y="416"/>
      <point x="109" y="397" type="curve" smooth="yes"/>
      <point x="96" y="385"/>
      <point x="75" y="385"/>
      <point x="62" y="398" type="curve" smooth="yes"/>
      <point x="50" y="411"/>
      <point x="50" y="432"/>
    </contour>
    <contour>
      <point x="205" y="337" type="curve" smooth="yes"/>
      <point x="295" y="472"/>
      <point x="385" y="524"/>
      <point x="458" y="524" type="curve" smooth="yes"/>
      <point x="527" y="524"/>
      <point x="580" y="498"/>
      <point x="645" y="418" type="curve" smooth="yes"/>
      <point x="656" y="404"/>
      <point x="654" y="383"/>
      <point x="640" y="371" type="curve" smooth="yes"/>
      <point x="626" y="360"/>
      <point x="605" y="362"/>
      <point x="593" y="376" type="curve" smooth="yes"/>
      <point x="546" y="434"/>
      <point x="509" y="458"/>
      <point x="458" y="458" type="curve" smooth="yes"/>
      <point x="399" y="458"/>
      <point x="331" y="406"/>
      <point x="259" y="301" type="curve" smooth="yes"/>
      <point x="249" y="286"/>
      <point x="228" y="282"/>
      <point x="214" y="292" type="curve" smooth="yes"/>
      <point x="199" y="302"/>
      <point x="195" y="323"/>
    </contour>
    <contour>
      <point x="426" y="333" type="curve" smooth="yes"/>
      <point x="406" y="333"/>
      <point x="391" y="317"/>
      <point x="391" y="301" type="curve" smooth="yes"/>
      <point x="391" y="284"/>
      <point x="406" y="268"/>
      <point x="425" y="268" type="curve" smooth="yes"/>
      <point x="446" y="268"/>
      <point x="458" y="284"/>
      <point x="458" y="302" type="curve" smooth="yes"/>
      <point x="458" y="316"/>
      <point x="445" y="333"/>
    </contour>
  </outline>
</glyph>
<glyph name="knO" format="1">
  <advance width="760.0"/>
  <outline>
    <contour>
      <point x="53" y="441" type="curve" smooth="yes"/>
      <point x="83" y="467"/>
      <point x="139" y="492"/>
      <point x="192" y="492" type="curve" smooth="yes"/>
      <point x="277" y="492"/>
      <point x="312" y="445"/>
      <point x="312" y="387" type="curve" smooth="yes"/>
      <point x="312" y="339"/>
      <point x="289" y="301"/>
      <point x="211" y="240" type="curve" smooth="yes"/>
      <point x="170" y="207"/>
      <point x="141" y="167"/>
      <point x="141" y="126" type="curve" smooth="yes"/>
      <point x="141" y="86"/>
      <point x="172" y="54"/>
      <point x="221" y="54" type="curve" smooth="yes"/>
      <point x="293" y="54"/>
      <point x="329" y="93"/>
      <point x="364" y="162" type="curve" smooth="yes"/>
      <point x="369" y="172"/>
      <point x="382" y="180"/>
      <point x="393" y="180" type="curve" smooth="yes"/>
      <point x="395" y="180" type="line" smooth="yes"/>
      <point x="407" y="180"/>
      <point x="420" y="171"/>
      <point x="425" y="161" type="curve" smooth="yes"/>
      <point x="455" y="95"/>
      <point x="493" y="60"/>
      <point x="547" y="60" type="curve" smooth="yes"/>
      <point x="597" y="60"/>
      <point x="642" y="98"/>
      <point x="642" y="154" type="curve" smooth="yes"/>
      <point x="642" y="191"/>
      <point x="632" y="220"/>
      <point x="626" y="239" type="curve" smooth="yes"/>
      <point x="620" y="255"/>
      <point x="630" y="275"/>
      <point x="647" y="280" type="curve" smooth="yes"/>
      <point x="663" y="286"/>
      <point x="683" y="276"/>
      <point x="688" y="259" type="curve" smooth="yes"/>
      <point x="696" y="236"/>
      <point x="708" y="201"/>
      <point x="708" y="154" type="curve" smooth="yes"/>
      <point x="708" y="58"/>
      <point x="633" y="-6"/>
      <point x="547" y="-6" type="curve" smooth="yes"/>
      <point x="469" y="-6"/>
      <point x="409" y="35"/>
      <point x="365" y="133" type="curve"/>
      <point x="395" y="114" type="line"/>
      <point x="393" y="114" type="line"/>
      <point x="422" y="132" type="line"/>
      <point x="373" y="35"/>
      <point x="319" y="-12"/>
      <point x="221" y="-12" type="curve" smooth="yes"/>
      <point x="126" y="-12"/>
      <point x="75" y="54"/>
      <point x="75" y="126" type="curve" smooth="yes"/>
      <point x="75" y="185"/>
      <point x="110" y="245"/>
      <point x="171" y="292" type="curve" smooth="yes"/>
      <point x="221" y="331"/>
      <point x="246" y="353"/>
      <point x="246" y="387" type="curve" smooth="yes"/>
      <point x="246" y="413"/>
      <point x="223" y="426"/>
      <point x="192" y="426" type="curve" smooth="yes"/>
      <point x="155" y="426"/>
      <point x="117" y="409"/>
      <point x="97" y="391" type="curve" smooth="yes"/>
      <point x="83" y="379"/>
      <point x="62" y="381"/>
      <point x="50" y="394" type="curve" smooth="yes"/>
      <point x="38" y="408"/>
      <point x="40" y="429"/>
    </contour>
  </outline>
</glyph>
<glyph name="knPI" format="1">
  <advance width="726"/>
  <outline>
    <contour>
      <point x="334" y="392" type="curve" smooth="yes"/>
      <point x="187" y="392"/>
      <point x="148" y="446"/>
      <point x="148" y="508" type="curve" smooth="yes"/>
      <point x="148" y="575"/>
      <point x="204" y="640"/>
      <point x="328" y="640" type="curve" smooth="yes"/>
      <point x="442" y="640"/>
      <point x="510" y="549"/>
      <point x="510" y="515" type="curve" smooth="yes"/>
      <point x="510" y="462"/>
      <point x="472" y="392"/>
    </contour>
    <contour>
      <point x="334" y="458" type="curve" smooth="yes"/>
      <point x="398" y="458"/>
      <point x="444" y="482"/>
      <point x="444" y="515" type="curve" smooth="yes"/>
      <point x="444" y="537"/>
      <point x="382" y="574"/>
      <point x="328" y="574" type="curve" smooth="yes"/>
      <point x="266" y="574"/>
      <point x="214" y="551"/>
      <point x="214" y="508" type="curve" smooth="yes"/>
      <point x="214" y="468"/>
      <point x="271" y="458"/>
    </contour>
    <contour>
      <point x="161" y="199" type="curve" smooth="yes"/>
      <point x="142" y="184"/>
      <point x="129" y="158"/>
      <point x="129" y="128" type="curve" smooth="yes"/>
      <point x="129" y="95"/>
      <point x="152" y="54"/>
      <point x="205" y="54" type="curve" smooth="yes"/>
      <point x="263" y="54"/>
      <point x="309" y="92"/>
      <point x="335" y="159" type="curve" smooth="yes"/>
      <point x="340" y="171"/>
      <point x="353" y="180"/>
      <point x="366" y="180" type="curve" smooth="yes"/>
      <point x="368" y="180" type="line" smooth="yes"/>
      <point x="380" y="180"/>
      <point x="393" y="171"/>
      <point x="398" y="161" type="curve" smooth="yes"/>
      <point x="428" y="95"/>
      <point x="463" y="60"/>
      <point x="517" y="60" type="curve" smooth="yes"/>
      <point x="570" y="60"/>
      <point x="602" y="104"/>
      <point x="602" y="172" type="curve" smooth="yes"/>
      <point x="602" y="212"/>
      <point x="595" y="258"/>
      <point x="585" y="288" type="curve" smooth="yes"/>
      <point x="580" y="305"/>
      <point x="590" y="324"/>
      <point x="607" y="330" type="curve" smooth="yes"/>
      <point x="624" y="335"/>
      <point x="643" y="325"/>
      <point x="649" y="308" type="curve" smooth="yes"/>
      <point x="659" y="272"/>
      <point x="668" y="218"/>
      <point x="668" y="172" type="curve" smooth="yes"/>
      <point x="668" y="52"/>
      <point x="600" y="-6"/>
      <point x="517" y="-6" type="curve" smooth="yes"/>
      <point x="439" y="-6"/>
      <point x="382" y="35"/>
      <point x="338" y="133" type="curve"/>
      <point x="368" y="114" type="line"/>
      <point x="366" y="114" type="line"/>
      <point x="397" y="135" type="line"/>
      <point x="359" y="36"/>
      <point x="287" y="-12"/>
      <point x="205" y="-12" type="curve" smooth="yes"/>
      <point x="106" y="-12"/>
      <point x="63" y="65"/>
      <point x="63" y="128" type="curve"/>
      <point x="63" y="182"/>
      <point x="88" y="226"/>
      <point x="121" y="251" type="curve" smooth="yes"/>
      <point x="135" y="262"/>
      <point x="156" y="259"/>
      <point x="167" y="245" type="curve" smooth="yes"/>
      <point x="178" y="231"/>
      <point x="175" y="210"/>
    </contour>
    <contour>
      <point x="302" y="406" type="curve" smooth="yes"/>
      <point x="292" y="395"/>
      <point x="286" y="381"/>
      <point x="286" y="364" type="curve" smooth="yes"/>
      <point x="286" y="326"/>
      <point x="324" y="300"/>
      <point x="370" y="300" type="curve" smooth="yes"/>
      <point x="437" y="300"/>
      <point x="474" y="333"/>
      <point x="474" y="375" type="curve" smooth="yes"/>
      <point x="474" y="425"/>
      <point x="467" y="467"/>
      <point x="448" y="498" type="curve" smooth="yes"/>
      <point x="440" y="514"/>
      <point x="445" y="535"/>
      <point x="460" y="544" type="curve" smooth="yes"/>
      <point x="476" y="552"/>
      <point x="497" y="547"/>
      <point x="506" y="532" type="curve" smooth="yes"/>
      <point x="529" y="491"/>
      <point x="540" y="439"/>
      <point x="540" y="375" type="curve" smooth="yes"/>
      <point x="540" y="307"/>
      <point x="495" y="234"/>
      <point x="370" y="234" type="curve" smooth="yes"/>
      <point x="276" y="234"/>
      <point x="220" y="296"/>
      <point x="220" y="364" type="curve" smooth="yes"/>
      <point x="220" y="399"/>
      <point x="232" y="429"/>
      <point x="254" y="452" type="curve" smooth="yes"/>
      <point x="266" y="465"/>
      <point x="288" y="465"/>
      <point x="301" y="453" type="curve" smooth="yes"/>
      <point x="314" y="441"/>
      <point x="314" y="419"/>
    </contour>
  </outline>
</glyph>
<glyph name="knPa" format="1">
  <advance width="726"/>
  <outline>
    <contour>
      <point x="99" y="470" type="curve" smooth="yes"/>
      <point x="514" y="470" type="line" smooth="yes"/>
      <point x="573" y="470"/>
      <point x="608" y="490"/>
      <point x="634" y="532" type="curve" smooth="yes"/>
      <point x="643" y="547"/>
      <point x="664" y="552"/>
      <point x="679" y="543" type="curve" smooth="yes"/>
      <point x="694" y="534"/>
      <point x="699" y="513"/>
      <point x="690" y="498" type="curve" smooth="yes"/>
      <point x="652" y="436"/>
      <point x="601" y="404"/>
      <point x="514" y="404" type="curve" smooth="yes"/>
      <point x="99" y="404" type="line" smooth="yes"/>
      <point x="81" y="404"/>
      <point x="66" y="419"/>
      <point x="66" y="437" type="curve" smooth="yes"/>
      <point x="66" y="455"/>
      <point x="81" y="470"/>
    </contour>
    <contour>
      <point x="181" y="193" type="curve" smooth="yes"/>
      <point x="151" y="187"/>
      <point x="129" y="163"/>
      <point x="129" y="128" type="curve" smooth="yes"/>
      <point x="129" y="95"/>
      <point x="152" y="54"/>
      <point x="205" y="54" type="curve" smooth="yes"/>
      <point x="263" y="54"/>
      <point x="309" y="92"/>
      <point x="335" y="159" type="curve" smooth="yes"/>
      <point x="340" y="171"/>
      <point x="353" y="180"/>
      <point x="366" y="180" type="curve" smooth="yes"/>
      <point x="368" y="180" type="line" smooth="yes"/>
      <point x="380" y="180"/>
      <point x="393" y="171"/>
      <point x="398" y="161" type="curve" smooth="yes"/>
      <point x="428" y="95"/>
      <point x="463" y="60"/>
      <point x="517" y="60" type="curve" smooth="yes"/>
      <point x="570" y="60"/>
      <point x="602" y="104"/>
      <point x="602" y="172" type="curve" smooth="yes"/>
      <point x="602" y="212"/>
      <point x="595" y="258"/>
      <point x="585" y="288" type="curve" smooth="yes"/>
      <point x="580" y="305"/>
      <point x="590" y="324"/>
      <point x="607" y="330" type="curve" smooth="yes"/>
      <point x="624" y="335"/>
      <point x="643" y="325"/>
      <point x="649" y="308" type="curve" smooth="yes"/>
      <point x="659" y="272"/>
      <point x="668" y="218"/>
      <point x="668" y="172" type="curve" smooth="yes"/>
      <point x="668" y="52"/>
      <point x="600" y="-6"/>
      <point x="517" y="-6" type="curve" smooth="yes"/>
      <point x="439" y="-6"/>
      <point x="382" y="35"/>
      <point x="338" y="133" type="curve"/>
      <point x="368" y="114" type="line"/>
      <point x="366" y="114" type="line"/>
      <point x="397" y="135" type="line"/>
      <point x="359" y="36"/>
      <point x="287" y="-12"/>
      <point x="205" y="-12" type="curve" smooth="yes"/>
      <point x="106" y="-12"/>
      <point x="63" y="65"/>
      <point x="63" y="128" type="curve"/>
      <point x="63" y="199"/>
      <point x="109" y="247"/>
      <point x="169" y="257" type="curve" smooth="yes"/>
      <point x="187" y="261"/>
      <point x="204" y="248"/>
      <point x="207" y="231" type="curve" smooth="yes"/>
      <point x="211" y="213"/>
      <point x="198" y="196"/>
    </contour>
    <contour>
      <point x="337" y="411" type="curve" smooth="yes"/>
      <point x="323" y="400"/>
      <point x="308" y="379"/>
      <point x="308" y="354" type="curve" smooth="yes"/>
      <point x="308" y="323"/>
      <point x="333" y="300"/>
      <point x="367" y="300" type="curve" smooth="yes"/>
      <point x="401" y="300"/>
      <point x="427" y="323"/>
      <point x="427" y="355" type="curve" smooth="yes"/>
      <point x="427" y="376"/>
      <point x="420" y="398"/>
      <point x="403" y="410" type="curve" smooth="yes"/>
      <point x="388" y="421"/>
      <point x="385" y="442"/>
      <point x="395" y="456" type="curve" smooth="yes"/>
      <point x="406" y="471"/>
      <point x="427" y="474"/>
      <point x="441" y="464" type="curve" smooth="yes"/>
      <point x="474" y="440"/>
      <point x="493" y="398"/>
      <point x="493" y="355" type="curve" smooth="yes"/>
      <point x="493" y="287"/>
      <point x="443" y="234"/>
      <point x="367" y="234" type="curve" smooth="yes"/>
      <point x="291" y="234"/>
      <point x="242" y="289"/>
      <point x="242" y="354" type="curve" smooth="yes"/>
      <point x="242" y="401"/>
      <point x="269" y="442"/>
      <point x="297" y="463" type="curve" smooth="yes"/>
      <point x="311" y="474"/>
      <point x="332" y="471"/>
      <point x="343" y="457" type="curve" smooth="yes"/>
      <point x="354" y="443"/>
      <point x="351" y="422"/>
    </contour>
  </outline>
</glyph>
<glyph name="knRI" format="1">
  <advance width="647"/>
  <outline>
    <contour>
      <point x="308" y="298" type="curve" smooth="yes"/>
      <point x="166" y="298"/>
      <point x="82" y="346"/>
      <point x="82" y="446" type="curve" smooth="yes"/>
      <point x="82" y="531"/>
      <point x="144" y="603"/>
      <point x="254" y="603" type="curve" smooth="yes"/>
      <point x="405" y="603"/>
      <point x="503" y="479"/>
      <point x="503" y="432" type="curve" smooth="yes"/>
      <point x="503" y="396"/>
      <point x="433" y="298"/>
    </contour>
    <contour>
      <point x="308" y="364" type="curve" smooth="yes"/>
      <point x="371" y="364"/>
      <point x="437" y="408"/>
      <point x="437" y="432" type="curve" smooth="yes"/>
      <point x="437" y="467"/>
      <point x="347" y="537"/>
      <point x="254" y="537" type="curve" smooth="yes"/>
      <point x="190" y="537"/>
      <point x="148" y="499"/>
      <point x="148" y="446" type="curve" smooth="yes"/>
      <point x="148" y="376"/>
      <point x="230" y="364"/>
    </contour>
    <contour>
      <point x="202" y="323" type="curve" smooth="yes"/>
      <point x="169" y="303"/>
      <point x="149" y="263"/>
      <point x="149" y="209" type="curve" smooth="yes"/>
      <point x="149" y="120"/>
      <point x="226" y="47"/>
      <point x="322" y="47" type="curve" smooth="yes"/>
      <point x="425" y="47"/>
      <point x="494" y="124"/>
      <point x="494" y="222" type="curve" smooth="yes"/>
      <point x="494" y="280"/>
      <point x="477" y="356"/>
      <point x="443" y="412" type="curve" smooth="yes"/>
      <point x="434" y="427"/>
      <point x="439" y="448"/>
      <point x="454" y="457" type="curve" smooth="yes"/>
      <point x="469" y="466"/>
      <point x="490" y="461"/>
      <point x="499" y="446" type="curve" smooth="yes"/>
      <point x="539" y="380"/>
      <point x="560" y="290"/>
      <point x="560" y="222" type="curve" smooth="yes"/>
      <point x="560" y="86"/>
      <point x="463" y="-19"/>
      <point x="322" y="-19" type="curve" smooth="yes"/>
      <point x="186" y="-19"/>
      <point x="83" y="86"/>
      <point x="83" y="209" type="curve" smooth="yes"/>
      <point x="83" y="293"/>
      <point x="119" y="349"/>
      <point x="168" y="379" type="curve" smooth="yes"/>
      <point x="183" y="388"/>
      <point x="204" y="383"/>
      <point x="213" y="368" type="curve" smooth="yes"/>
      <point x="222" y="353"/>
      <point x="217" y="332"/>
    </contour>
  </outline>
</glyph>
<glyph name="knRa" format="1">
  <advance width="647"/>
  <outline>
    <contour>
      <point x="83" y="222" type="curve" smooth="yes"/>
      <point x="83" y="347"/>
      <point x="201" y="470"/>
      <point x="322" y="470" type="curve" smooth="yes"/>
      <point x="444" y="470"/>
      <point x="560" y="345"/>
      <point x="560" y="222" type="curve" smooth="yes"/>
      <point x="560" y="86"/>
      <point x="463" y="-19"/>
      <point x="322" y="-19" type="curve" smooth="yes"/>
      <point x="186" y="-19"/>
      <point x="83" y="84"/>
    </contour>
    <contour>
      <point x="99" y="470" type="curve" smooth="yes"/>
      <point x="431" y="470" type="line" smooth="yes"/>
      <point x="490" y="470"/>
      <point x="525" y="490"/>
      <point x="551" y="532" type="curve" smooth="yes"/>
      <point x="560" y="547"/>
      <point x="581" y="552"/>
      <point x="596" y="543" type="curve" smooth="yes"/>
      <point x="611" y="534"/>
      <point x="616" y="513"/>
      <point x="607" y="498" type="curve" smooth="yes"/>
      <point x="569" y="436"/>
      <point x="518" y="404"/>
      <point x="431" y="404" type="curve" smooth="yes"/>
      <point x="99" y="404" type="line" smooth="yes"/>
      <point x="81" y="404"/>
      <point x="66" y="419"/>
      <point x="66" y="437" type="curve" smooth="yes"/>
      <point x="66" y="455"/>
      <point x="81" y="470"/>
    </contour>
    <contour>
      <point x="149" y="222" type="curve" smooth="yes"/>
      <point x="149" y="122"/>
      <point x="224" y="47"/>
      <point x="322" y="47" type="curve" smooth="yes"/>
      <point x="425" y="47"/>
      <point x="494" y="124"/>
      <point x="494" y="222" type="curve" smooth="yes"/>
      <point x="494" y="311"/>
      <point x="412" y="404"/>
      <point x="322" y="404" type="curve" smooth="yes"/>
      <point x="233" y="404"/>
      <point x="149" y="313"/>
    </contour>
  </outline>
</glyph>
<glyph name="knSa" format="1">
  <advance width="696"/>
  <outline>
    <contour>
      <point x="317" y="411" type="curve" smooth="yes"/>
      <point x="303" y="400"/>
      <point x="288" y="379"/>
      <point x="288" y="354" type="curve" smooth="yes"/>
      <point x="288" y="323"/>
      <point x="313" y="300"/>
      <point x="347" y="300" type="curve" smooth="yes"/>
      <point x="381" y="300"/>
      <point x="407" y="323"/>
      <point x="407" y="355" type="curve" smooth="yes"/>
      <point x="407" y="376"/>
      <point x="400" y="398"/>
      <point x="383" y="410" type="curve" smooth="yes"/>
      <point x="368" y="421"/>
      <point x="365" y="442"/>
      <point x="375" y="456" type="curve" smooth="yes"/>
      <point x="386" y="471"/>
      <point x="407" y="474"/>
      <point x="421" y="464" type="curve" smooth="yes"/>
      <point x="454" y="440"/>
      <point x="473" y="398"/>
      <point x="473" y="355" type="curve" smooth="yes"/>
      <point x="473" y="287"/>
      <point x="423" y="234"/>
      <point x="347" y="234" type="curve" smooth="yes"/>
      <point x="271" y="234"/>
      <point x="222" y="289"/>
      <point x="222" y="354" type="curve" smooth="yes"/>
      <point x="222" y="401"/>
      <point x="249" y="442"/>
      <point x="277" y="463" type="curve" smooth="yes"/>
      <point x="291" y="474"/>
      <point x="312" y="471"/>
      <point x="323" y="457" type="curve" smooth="yes"/>
      <point x="334" y="443"/>
      <point x="331" y="422"/>
    </contour>
    <contour>
      <point x="100" y="470" type="curve" smooth="yes"/>
      <point x="482" y="470" type="line" smooth="yes"/>
      <point x="541" y="470"/>
      <point x="576" y="490"/>
      <point x="602" y="532" type="curve" smooth="yes"/>
      <point x="611" y="547"/>
      <point x="632" y="552"/>
      <point x="647" y="543" type="curve" smooth="yes"/>
      <point x="662" y="534"/>
      <point x="667" y="513"/>
      <point x="658" y="498" type="curve" smooth="yes"/>
      <point x="620" y="436"/>
      <point x="569" y="404"/>
      <point x="482" y="404" type="curve" smooth="yes"/>
      <point x="100" y="404" type="line" smooth="yes"/>
      <point x="82" y="404"/>
      <point x="67" y="419"/>
      <point x="67" y="437" type="curve" smooth="yes"/>
      <point x="67" y="455"/>
      <point x="82" y="470"/>
    </contour>
    <contour>
      <point x="87" y="5" type="curve" smooth="yes"/>
      <point x="90" y="129"/>
      <point x="109" y="202"/>
      <point x="144" y="236" type="curve" smooth="yes"/>
      <point x="175" y="268"/>
      <point x="199" y="274"/>
      <point x="232" y="274" type="curve" smooth="yes"/>
      <point x="288" y="274"/>
      <point x="339" y="244"/>
      <point x="384" y="148" type="curve" smooth="yes"/>
      <point x="408" y="96"/>
      <point x="429" y="60"/>
      <point x="479" y="60" type="curve" smooth="yes"/>
      <point x="532" y="60"/>
      <point x="567" y="105"/>
      <point x="567" y="172" type="curve" smooth="yes"/>
      <point x="567" y="224"/>
      <point x="561" y="260"/>
      <point x="552" y="286" type="curve" smooth="yes"/>
      <point x="547" y="303"/>
      <point x="557" y="322"/>
      <point x="574" y="328" type="curve" smooth="yes"/>
      <point x="591" y="333"/>
      <point x="610" y="323"/>
      <point x="616" y="306" type="curve" smooth="yes"/>
      <point x="625" y="274"/>
      <point x="633" y="232"/>
      <point x="633" y="172" type="curve" smooth="yes"/>
      <point x="633" y="55"/>
      <point x="562" y="-6"/>
      <point x="479" y="-6" type="curve" smooth="yes"/>
      <point x="403" y="-6"/>
      <point x="364" y="36"/>
      <point x="324" y="120" type="curve" smooth="yes"/>
      <point x="297" y="178"/>
      <point x="270" y="208"/>
      <point x="232" y="208" type="curve" smooth="yes"/>
      <point x="217" y="208"/>
      <point x="205" y="204"/>
      <point x="190" y="190" type="curve" smooth="yes"/>
      <point x="163" y="162"/>
      <point x="156" y="99"/>
      <point x="153" y="3" type="curve" smooth="yes"/>
      <point x="153" y="-15"/>
      <point x="137" y="-29"/>
      <point x="119" y="-29" type="curve" smooth="yes"/>
      <point x="101" y="-29"/>
      <point x="87" y="-13"/>
    </contour>
  </outline>
</glyph>
<glyph name="knUsign" format="1">
  <advance width="294"/>
  <outline>
    <contour>
      <point x="-61" y="206" type="curve" smooth="yes"/>
      <point x="-12" y="118"/>
      <point x="41" y="60"/>
      <point x="107" y="60" type="curve" smooth="yes"/>
      <point x="160" y="60"/>
      <point x="196" y="108"/>
      <point x="196" y="180" type="curve" smooth="yes"/>
      <point x="196" y="252"/>
      <point x="158" y="331"/>
      <point x="104" y="392" type="curve" smooth="yes"/>
      <point x="92" y="406"/>
      <point x="94" y="427"/>
      <point x="107" y="439" type="curve" smooth="yes"/>
      <point x="121" y="451"/>
      <point x="142" y="449"/>
      <point x="154" y="436" type="curve" smooth="yes"/>
      <point x="218" y="363"/>
      <point x="262" y="266"/>
      <point x="262" y="180" type="curve" smooth="yes"/>
      <point x="262" y="54"/>
      <point x="188" y="-6"/>
      <point x="107" y="-6" type="curve" smooth="yes"/>
      <point x="23" y="-6"/>
      <point x="-54" y="56"/>
      <point x="-119" y="174" type="curve" smooth="yes"/>
      <point x="-128" y="190"/>
      <point x="-122" y="210"/>
      <point x="-106" y="219" type="curve" smooth="yes"/>
      <point x="-90" y="228"/>
      <point x="-70" y="222"/>
    </contour>
  </outline>
</glyph>
<glyph name="knUusign" format="1">
  <advance width="580"/>
  <outline>
    <contour>
      <point x="-61" y="206" type="curve" smooth="yes"/>
      <point x="-13" y="120"/>
      <point x="48" y="60"/>
      <point x="87" y="60" type="curve" smooth="yes"/>
      <point x="126" y="60"/>
      <point x="144" y="84"/>
      <point x="144" y="125" type="curve" smooth="yes"/>
      <point x="144" y="188"/>
      <point x="117" y="255"/>
      <point x="117" y="325" type="curve" smooth="yes"/>
      <point x="117" y="402"/>
      <point x="171" y="470"/>
      <point x="260" y="470" type="curve" smooth="yes"/>
      <point x="423" y="470"/>
      <point x="544" y="367"/>
      <point x="544" y="160" type="curve" smooth="yes"/>
      <point x="544" y="39"/>
      <point x="478" y="-21"/>
      <point x="401" y="-21" type="curve" smooth="yes"/>
      <point x="322" y="-21"/>
      <point x="272" y="28"/>
      <point x="271" y="105" type="curve" smooth="yes"/>
      <point x="270" y="178"/>
      <point x="318" y="266"/>
      <point x="480" y="277" type="curve" smooth="yes"/>
      <point x="497" y="278"/>
      <point x="514" y="264"/>
      <point x="515" y="246" type="curve" smooth="yes"/>
      <point x="516" y="229"/>
      <point x="502" y="212"/>
      <point x="484" y="211" type="curve" smooth="yes"/>
      <point x="386" y="204"/>
      <point x="336" y="158"/>
      <point x="337" y="107" type="curve" smooth="yes"/>
      <point x="338" y="68"/>
      <point x="362" y="45"/>
      <point x="401" y="45" type="curve" smooth="yes"/>
      <point x="450" y="45"/>
      <point x="478" y="95"/>
      <point x="478" y="160" type="curve" smooth="yes"/>
      <point x="478" y="319"/>
      <point x="389" y="404"/>
      <point x="260" y="404" type="curve" smooth="yes"/>
      <point x="211" y="404"/>
      <point x="183" y="366"/>
      <point x="183" y="325" type="curve" smooth="yes"/>
      <point x="183" y="255"/>
      <point x="210" y="188"/>
      <point x="210" y="125" type="curve" smooth="yes"/>
      <point x="210" y="36"/>
      <point x="166" y="-6"/>
      <point x="87" y="-6" type="curve" smooth="yes"/>
      <point x="36" y="-6"/>
      <point x="-53" y="54"/>
      <point x="-119" y="174" type="curve" smooth="yes"/>
      <point x="-128" y="190"/>
      <point x="-122" y="210"/>
      <point x="-106" y="219" type="curve" smooth="yes"/>
      <point x="-90" y="228"/>
      <point x="-70" y="222"/>
    </contour>
  </outline>
</glyph>
